<svg width="103" height="119" viewBox="0 0 103 119" fill="none" xmlns="http://www.w3.org/2000/svg">
<g clip-path="url(#clip0_1232_20548)">
<mask id="mask0_1232_20548" style="mask-type:luminance" maskUnits="userSpaceOnUse" x="0" y="-1014" width="402" height="1897">
<path d="M402 -1014H0V882.65H402V-1014Z" fill="white"/>
</mask>
<g mask="url(#mask0_1232_20548)">
<path d="M401.47 -1013.5V882.15H0.539795V-1013.5H401.47Z" stroke="black"/>
<path d="M401.47 -1013.5V882.15H0.539795V-1013.5H401.47Z" stroke="black" stroke-opacity="0.2"/>
<path d="M31.0598 119.35C70.4101 119.35 102.31 107.97 102.31 93.9298C102.31 79.8898 70.4101 68.5098 31.0598 68.5098C-8.29047 68.5098 -40.1902 79.8898 -40.1902 93.9298C-40.1902 107.97 -8.29047 119.35 31.0598 119.35Z" fill="#C1D353"/>
<path d="M-5.6301 27.1796C-5.6301 27.1796 -5.0301 -2.60047 22.0599 0.379532C49.1499 3.35953 39.9199 33.1295 39.9199 33.1295C39.9199 33.1295 56.5999 32.5396 59.2799 50.3996C59.2799 50.3996 83.0699 49.3995 89.6399 65.8795C92.0299 71.8295 94.8499 89.0995 84.0099 95.7295C75.8199 100.73 53.0099 98.3295 53.0099 98.3295C53.0099 98.3295 50.3399 103.989 30.0899 104.579C9.8399 105.169 9.2499 100.12 9.2499 100.12C9.2499 100.12 0.319901 108.75 -20.5201 106.12C-41.3601 103.49 -46.7201 87.1196 -41.6601 73.6696C-36.6001 60.2196 -19.3301 56.8996 -19.3301 56.8996L-19.9801 51.8395C-20.5018 47.7395 -19.8846 43.5895 -18.1962 39.8195C-16.5079 36.0495 -13.8138 32.8195 -10.4101 30.4895L-5.6301 27.1796Z" fill="#41AA72"/>
<path d="M53.4199 108.551C62.1349 108.551 69.1999 102.001 69.1999 93.9305C69.1999 85.8505 62.1349 79.3105 53.4199 79.3105C44.7048 79.3105 37.6399 85.8505 37.6399 93.9305C37.6399 102.001 44.7048 108.551 53.4199 108.551Z" fill="#2A9171"/>
<path d="M9.74986 50.6395C14.1074 50.6395 17.6399 47.3695 17.6399 43.3295C17.6399 39.2895 14.1074 36.0195 9.74986 36.0195C5.39234 36.0195 1.85986 39.2895 1.85986 43.3295C1.85986 47.3695 5.39234 50.6395 9.74986 50.6395Z" fill="#2A9171"/>
</g>
</g>
<defs>
<clipPath id="clip0_1232_20548">
<rect width="402" height="1897" fill="white" transform="translate(0 -1014)"/>
</clipPath>
</defs>
</svg>
