<svg width="25" height="25" viewBox="0 0 25 25" fill="none" xmlns="http://www.w3.org/2000/svg">
<path d="M9.82261 12.5C13.1316 12.5 15.8226 9.809 15.8226 6.5C15.8226 3.191 13.1316 0.5 9.82261 0.5C6.51361 0.5 3.82261 3.191 3.82261 6.5C3.82261 9.809 6.51361 12.5 9.82261 12.5ZM9.82261 3.5C11.4766 3.5 12.8226 4.846 12.8226 6.5C12.8226 8.154 11.4766 9.5 9.82261 9.5C8.16861 9.5 6.82261 8.154 6.82261 6.5C6.82261 4.846 8.16861 3.5 9.82261 3.5ZM11.8226 17.841C11.1826 17.615 10.5096 17.5 9.82261 17.5C6.66261 17.5 4.02661 19.959 3.81961 23.099C3.76761 23.892 3.10861 24.5 2.32461 24.5C2.29161 24.5 2.25861 24.5 2.22461 24.497C1.39761 24.443 0.771606 23.728 0.826606 22.902C1.13661 18.191 5.08861 14.501 9.82361 14.501C10.8526 14.501 11.8616 14.673 12.8236 15.014C13.6046 15.29 14.0136 16.147 13.7376 16.928C13.4616 17.709 12.6056 18.118 11.8236 17.842L11.8226 17.841ZM24.0826 16.516L17.3676 23.231C16.5546 24.044 15.4526 24.5 14.3036 24.5H13.3486C13.0726 24.5 12.8486 24.276 12.8486 24V23.045C12.8486 21.896 13.3056 20.793 14.1176 19.981L20.9256 13.173C21.8786 12.22 23.4596 12.279 24.3346 13.349C25.0956 14.279 24.9326 15.666 24.0826 16.516Z" fill="#30688E"/>
</svg>
