<svg width="402" height="1897" viewBox="0 0 402 1897" fill="none" xmlns="http://www.w3.org/2000/svg">
<g clip-path="url(#clip0_1232_20548)">
<mask id="mask0_1232_20548" style="mask-type:luminance" maskUnits="userSpaceOnUse" x="0" y="0" width="402" height="1897">
<path d="M402 0H0V1896.65H402V0Z" fill="white"/>
</mask>
<g mask="url(#mask0_1232_20548)">
<path d="M401.93 0H0V1896.65H401.93V0Z" fill="#CDE260"/>
<path d="M288.15 645.49C297.555 645.49 305.18 642.768 305.18 639.41C305.18 636.052 297.555 633.33 288.15 633.33C278.744 633.33 271.12 636.052 271.12 639.41C271.12 642.768 278.744 645.49 288.15 645.49Z" fill="#C1D353"/>
<path d="M100.08 615.631C109.485 615.631 117.11 612.909 117.11 609.551C117.11 606.193 109.485 603.471 100.08 603.471C90.6744 603.471 83.0498 606.193 83.0498 609.551C83.0498 612.909 90.6744 615.631 100.08 615.631Z" fill="#C1D353"/>
<path d="M126.01 816.56C135.415 816.56 143.04 813.838 143.04 810.48C143.04 807.122 135.415 804.4 126.01 804.4C116.604 804.4 108.98 807.122 108.98 810.48C108.98 813.838 116.604 816.56 126.01 816.56Z" fill="#C1D353"/>
<path d="M280.45 848.291C289.855 848.291 297.48 845.569 297.48 842.211C297.48 838.853 289.855 836.131 280.45 836.131C271.045 836.131 263.42 838.853 263.42 842.211C263.42 845.569 271.045 848.291 280.45 848.291Z" fill="#C1D353"/>
<path d="M42.0998 1008.27C51.5052 1008.27 59.1298 1005.55 59.1298 1002.19C59.1298 998.833 51.5052 996.111 42.0998 996.111C32.6944 996.111 25.0698 998.833 25.0698 1002.19C25.0698 1005.55 32.6944 1008.27 42.0998 1008.27Z" fill="#C1D353"/>
<path d="M354.11 953.48C363.515 953.48 371.14 950.758 371.14 947.4C371.14 944.042 363.515 941.32 354.11 941.32C344.704 941.32 337.08 944.042 337.08 947.4C337.08 950.758 344.704 953.48 354.11 953.48Z" fill="#C1D353"/>
<path d="M295.72 1073.73C305.125 1073.73 312.75 1071.01 312.75 1067.65C312.75 1064.29 305.125 1061.57 295.72 1061.57C286.315 1061.57 278.69 1064.29 278.69 1067.65C278.69 1071.01 286.315 1073.73 295.72 1073.73Z" fill="#C1D353"/>
<path d="M246.68 1396.74C256.085 1396.74 263.71 1394.02 263.71 1390.66C263.71 1387.3 256.085 1384.58 246.68 1384.58C237.274 1384.58 229.65 1387.3 229.65 1390.66C229.65 1394.02 237.274 1396.74 246.68 1396.74Z" fill="#C1D353"/>
<path d="M347.84 1488.59C357.245 1488.59 364.87 1485.87 364.87 1482.51C364.87 1479.15 357.245 1476.43 347.84 1476.43C338.434 1476.43 330.81 1479.15 330.81 1482.51C330.81 1485.87 338.434 1488.59 347.84 1488.59Z" fill="#C1D353"/>
<path d="M142.35 1507.79C151.755 1507.79 159.38 1505.07 159.38 1501.71C159.38 1498.35 151.755 1495.63 142.35 1495.63C132.944 1495.63 125.32 1498.35 125.32 1501.71C125.32 1505.07 132.944 1507.79 142.35 1507.79Z" fill="#C1D353"/>
<path d="M41.3799 685.371C41.3799 685.371 52.1898 686.511 55.1698 680.611C55.1698 680.611 56.5599 675.451 41.3799 674.751C41.3799 674.751 29.1598 674.471 28.7698 679.121C28.2298 685.621 41.3799 685.371 41.3799 685.371Z" fill="#9EC92B"/>
<path d="M37.9098 669.001C37.9098 669.001 34.2298 663.341 30.9098 664.431C27.5898 665.521 30.4098 674.751 33.9898 678.621C37.5698 682.491 48.1798 681.901 50.3598 678.621C50.3598 678.621 55.5898 671.971 55.6198 667.011C55.6498 662.051 48.6198 666.621 46.8898 669.101C46.8898 669.101 48.3498 657.291 42.6598 657.291C36.9698 657.291 37.9098 669.001 37.9098 669.001Z" fill="#7ACD02"/>
<path d="M222.07 699.231C222.07 699.231 232.88 700.381 235.86 694.471C235.86 694.471 237.25 689.311 222.07 688.621C222.07 688.621 209.85 688.331 209.46 692.981C208.92 699.481 222.07 699.231 222.07 699.231Z" fill="#9EC92B"/>
<path d="M218.6 682.81C218.6 682.81 214.92 677.15 211.6 678.25C208.28 679.35 211.1 688.57 214.68 692.44C218.26 696.31 228.87 695.71 231.05 692.44C231.05 692.44 236.28 685.79 236.31 680.83C236.34 675.87 229.31 680.43 227.58 682.91C227.58 682.91 229.04 671.1 223.35 671.1C217.66 671.1 218.6 682.81 218.6 682.81Z" fill="#41AA72"/>
<path d="M213.62 1585C213.62 1585 224.44 1586.14 227.41 1580.24C227.41 1580.24 228.8 1575.08 213.62 1574.38C213.62 1574.38 201.41 1574.1 201.02 1578.75C200.47 1585.28 213.62 1585 213.62 1585Z" fill="#9EC92B"/>
<path d="M210.15 1568.61C210.15 1568.61 206.48 1562.95 203.1 1564.05C199.72 1565.15 202.61 1574.37 206.18 1578.24C209.75 1582.11 220.37 1581.51 222.55 1578.24C222.55 1578.24 227.79 1571.59 227.81 1566.63C227.83 1561.67 220.81 1566.23 219.08 1568.71C219.08 1568.71 220.54 1556.9 214.85 1556.9C209.16 1556.9 210.15 1568.61 210.15 1568.61Z" fill="#7ACD02"/>
<path d="M215.65 1180.2C215.65 1180.2 226.47 1181.35 229.44 1175.44C229.44 1175.44 230.83 1170.28 215.65 1169.59C215.65 1169.59 203.43 1169.3 203.04 1173.95C202.5 1180.45 215.65 1180.2 215.65 1180.2Z" fill="#9EC92B"/>
<path d="M212.18 1163.78C212.18 1163.78 208.5 1158.12 205.13 1159.22C201.76 1160.32 204.63 1169.54 208.21 1173.41C211.79 1177.28 222.4 1176.68 224.58 1173.41C224.58 1173.41 229.81 1166.76 229.84 1161.8C229.87 1156.84 222.84 1161.4 221.11 1163.88C221.11 1163.88 222.57 1152.07 216.88 1152.07C211.19 1152.07 212.18 1163.78 212.18 1163.78Z" fill="#41AA72"/>
<path d="M267 1019.88C267 1019.88 277.81 1021.02 280.79 1015.12C280.79 1015.12 282.18 1009.96 267 1009.26C267 1009.26 254.78 1008.98 254.39 1013.63C253.89 1020.13 267 1019.88 267 1019.88Z" fill="#9EC92B"/>
<path d="M263.57 1003.46C263.57 1003.46 259.89 997.8 256.52 998.89C253.15 999.98 256.02 1009.21 259.6 1013.08C263.18 1016.95 273.79 1016.36 275.97 1013.08C275.97 1013.08 281.2 1006.44 281.23 1001.47C281.26 996.5 274.23 1001.08 272.5 1003.56C272.5 1003.56 273.96 991.75 268.27 991.75C262.58 991.75 263.57 1003.46 263.57 1003.46Z" fill="#7ACD02"/>
<path d="M358.13 662.111C358.13 662.111 372 663.571 375.81 656.001C375.81 656.001 377.59 649.391 358.13 648.501C358.13 648.501 342.48 648.131 341.98 654.091C341.28 662.421 358.13 662.111 358.13 662.111Z" fill="#9EC92B"/>
<path d="M353.68 641.061C353.68 641.061 348.98 633.811 344.68 635.211C340.38 636.611 344.04 648.441 348.62 653.401C353.2 658.361 366.8 657.591 369.62 653.401C369.62 653.401 376.32 644.881 376.36 638.521C376.4 632.161 367.43 638.021 365.17 641.191C365.17 641.191 367.04 626.061 359.74 626.061C352.44 626.061 353.68 641.061 353.68 641.061Z" fill="#7ACD02"/>
<path d="M58.9998 1497.72C58.9998 1497.72 72.8498 1499.18 76.6698 1491.61C76.6698 1491.61 78.4498 1485 58.9998 1484.11C58.9998 1484.11 43.3497 1483.74 42.8497 1489.71C42.1897 1498 58.9998 1497.72 58.9998 1497.72Z" fill="#9EC92B"/>
<path d="M54.5898 1476.67C54.5898 1476.67 49.8798 1469.43 45.5898 1470.82C41.2998 1472.21 44.9498 1484.05 49.5298 1489.01C54.1098 1493.97 67.7098 1493.2 70.5298 1489.01C70.5298 1489.01 77.2398 1480.49 77.2698 1474.13C77.2998 1467.77 68.3398 1473.63 66.0798 1476.8C66.0798 1476.8 67.9498 1461.67 60.6598 1461.67C53.3698 1461.67 54.5898 1476.67 54.5898 1476.67Z" fill="#41AA72"/>
<path d="M360.54 1052.06C368.896 1052.06 375.67 1049.64 375.67 1046.66C375.67 1043.68 368.896 1041.26 360.54 1041.26C352.184 1041.26 345.41 1043.68 345.41 1046.66C345.41 1049.64 352.184 1052.06 360.54 1052.06Z" fill="#C1D353"/>
<path d="M360.55 1024.51H360.54C359.281 1024.51 358.26 1025.53 358.26 1026.79V1045.71C358.26 1046.97 359.281 1047.99 360.54 1047.99H360.55C361.809 1047.99 362.83 1046.97 362.83 1045.71V1026.79C362.83 1025.53 361.809 1024.51 360.55 1024.51Z" fill="#79CC03"/>
<path d="M354 1029.86C353.392 1030.28 352.707 1030.58 351.984 1030.73C351.262 1030.89 350.515 1030.9 349.788 1030.77C349.06 1030.64 348.366 1030.36 347.744 1029.96C347.123 1029.56 346.586 1029.04 346.165 1028.43C345.744 1027.83 345.447 1027.14 345.291 1026.42C345.135 1025.7 345.123 1024.95 345.255 1024.22C345.387 1023.49 345.662 1022.8 346.062 1022.18C346.463 1021.56 346.982 1021.02 347.59 1020.6C346.423 1019.65 345.645 1018.3 345.404 1016.81C345.164 1015.33 345.477 1013.81 346.284 1012.53C347.092 1011.26 348.338 1010.33 349.786 1009.92C351.234 1009.51 352.783 1009.64 354.14 1010.29C354.61 1008.94 355.501 1007.77 356.684 1006.96C357.866 1006.16 359.276 1005.75 360.707 1005.81C362.137 1005.86 363.512 1006.37 364.629 1007.27C365.746 1008.16 366.546 1009.4 366.91 1010.78C368.228 1010.14 369.734 1010 371.144 1010.4C372.555 1010.79 373.773 1011.69 374.569 1012.92C375.364 1014.15 375.683 1015.63 375.464 1017.07C375.245 1018.52 374.504 1019.84 373.38 1020.78C374.371 1021.72 374.972 1023 375.062 1024.36C375.152 1025.72 374.725 1027.06 373.866 1028.13C373.008 1029.19 371.78 1029.88 370.43 1030.08C369.079 1030.27 367.704 1029.95 366.58 1029.18C366.222 1030.53 365.446 1031.73 364.363 1032.62C363.28 1033.5 361.946 1034.02 360.551 1034.1C359.156 1034.18 357.772 1033.81 356.595 1033.06C355.419 1032.31 354.51 1031.2 354 1029.9V1029.86Z" fill="#FA780E"/>
<path d="M359.81 1024.11C362.08 1024.11 363.92 1022.27 363.92 1020C363.92 1017.73 362.08 1015.89 359.81 1015.89C357.54 1015.89 355.7 1017.73 355.7 1020C355.7 1022.27 357.54 1024.11 359.81 1024.11Z" fill="white"/>
<path d="M366.728 1038.44C369.349 1036.93 371.089 1035.03 370.614 1034.21C370.139 1033.39 367.629 1033.95 365.008 1035.46C362.387 1036.97 360.647 1038.87 361.122 1039.69C361.597 1040.51 364.107 1039.95 366.728 1038.44Z" fill="#79CC03"/>
<path d="M364.086 1037.24C364.409 1036.68 363.214 1035.38 361.417 1034.35C359.62 1033.32 357.902 1032.94 357.579 1033.5C357.256 1034.06 358.45 1035.35 360.247 1036.39C362.044 1037.42 363.763 1037.8 364.086 1037.24Z" fill="#79CC03"/>
<path d="M368.67 1049.88C368.67 1049.88 372.38 1050.27 373.4 1048.25C373.4 1048.25 373.88 1046.48 368.67 1046.25C368.67 1046.25 364.47 1046.15 364.34 1047.75C364.15 1050 368.67 1049.88 368.67 1049.88Z" fill="#9EC92B"/>
<path d="M367.47 1044.24C367.47 1044.24 366.21 1042.3 365.06 1042.68C363.91 1043.06 364.89 1046.22 366.11 1047.55C367.33 1048.88 370.98 1048.67 371.73 1047.55C371.73 1047.55 373.53 1045.27 373.54 1043.55C373.55 1041.83 371.14 1043.42 370.54 1044.27C370.54 1044.27 371.04 1040.27 369.09 1040.27C367.14 1040.27 367.47 1044.24 367.47 1044.24Z" fill="#41AA72"/>
<path d="M352.43 1047C352.43 1047 354.84 1047.25 355.51 1045.94C355.51 1045.94 355.82 1044.78 352.43 1044.63C352.43 1044.63 349.7 1044.57 349.62 1045.63C349.49 1047.08 352.43 1047 352.43 1047Z" fill="#9EC92B"/>
<path d="M351.65 1043.36C351.65 1043.36 350.83 1042.1 350.08 1042.36C349.33 1042.62 349.97 1044.66 350.77 1045.52C351.57 1046.38 353.93 1046.25 354.42 1045.52C355.027 1044.77 355.431 1043.88 355.59 1042.93C355.59 1041.83 354.04 1042.84 353.65 1043.4C353.65 1043.4 353.97 1040.76 352.7 1040.76C351.43 1040.76 351.65 1043.36 351.65 1043.36Z" fill="#79CC03"/>
<path d="M43.13 1393.18C51.4861 1393.18 58.26 1390.76 58.26 1387.78C58.26 1384.8 51.4861 1382.38 43.13 1382.38C34.7739 1382.38 28 1384.8 28 1387.78C28 1390.76 34.7739 1393.18 43.13 1393.18Z" fill="#C1D353"/>
<path d="M43.1401 1365.63H43.1301C41.8709 1365.63 40.8501 1366.65 40.8501 1367.91V1386.83C40.8501 1388.09 41.8709 1389.11 43.1301 1389.11H43.1401C44.3993 1389.11 45.4201 1388.09 45.4201 1386.83V1367.91C45.4201 1366.65 44.3993 1365.63 43.1401 1365.63Z" fill="#79CC03"/>
<path d="M36.54 1371C35.3123 1371.77 33.8355 1372.03 32.4166 1371.74C30.9978 1371.45 29.7461 1370.62 28.9219 1369.43C28.0976 1368.24 27.7643 1366.78 27.9912 1365.35C28.2181 1363.92 28.9877 1362.63 30.14 1361.75C28.9785 1360.8 28.2057 1359.45 27.9674 1357.97C27.729 1356.49 28.0416 1354.97 28.8461 1353.7C29.6507 1352.43 30.8916 1351.5 32.3347 1351.08C33.7779 1350.67 35.3235 1350.79 36.68 1351.44C37.1496 1350.09 38.0413 1348.92 39.2235 1348.11C40.4057 1347.31 41.816 1346.9 43.2464 1346.96C44.6769 1347.01 46.0519 1347.52 47.1688 1348.42C48.2857 1349.31 49.0854 1350.55 49.45 1351.93C50.7675 1351.29 52.2736 1351.15 53.6843 1351.55C55.095 1351.94 56.313 1352.84 57.1086 1354.07C57.9042 1355.3 58.2225 1356.78 58.0036 1358.22C57.7847 1359.67 57.0436 1360.99 55.92 1361.93C56.9349 1362.86 57.5563 1364.14 57.6576 1365.52C57.7589 1366.89 57.3324 1368.25 56.4652 1369.32C55.5979 1370.39 54.3551 1371.09 52.9903 1371.28C51.6254 1371.46 50.2412 1371.12 49.12 1370.32C48.7614 1371.67 47.9854 1372.87 46.9027 1373.76C45.8199 1374.64 44.4858 1375.16 43.0909 1375.24C41.6959 1375.32 40.3114 1374.95 39.1349 1374.2C37.9585 1373.45 37.0503 1372.34 36.54 1371.04V1371Z" fill="#F9CC10"/>
<path d="M42.4 1365.23C44.6699 1365.23 46.51 1363.39 46.51 1361.12C46.51 1358.85 44.6699 1357.01 42.4 1357.01C40.1301 1357.01 38.29 1358.85 38.29 1361.12C38.29 1363.39 40.1301 1365.23 42.4 1365.23Z" fill="white"/>
<path d="M49.3225 1379.56C51.9436 1378.05 53.6833 1376.16 53.2083 1375.33C52.7333 1374.51 50.2236 1375.07 47.6025 1376.58C44.9815 1378.1 43.2417 1379.99 43.7167 1380.81C44.1916 1381.64 46.7015 1381.08 49.3225 1379.56Z" fill="#79CC03"/>
<path d="M42.5441 1379.78C42.8671 1379.22 41.6789 1377.93 39.8901 1376.9C38.1013 1375.87 36.3893 1375.48 36.0662 1376.04C35.7431 1376.6 36.9313 1377.89 38.7201 1378.92C40.5089 1379.96 42.221 1380.34 42.5441 1379.78Z" fill="#79CC03"/>
<path d="M51.2599 1391C51.2599 1391 54.9699 1391.39 55.9899 1389.36C55.9899 1389.36 56.4699 1387.59 51.2599 1387.36C51.2599 1387.36 47.0699 1387.26 46.9299 1388.85C46.7399 1391.09 51.2599 1391 51.2599 1391Z" fill="#9EC92B"/>
<path d="M50.07 1385.36C50.07 1385.36 48.81 1383.42 47.65 1383.8C46.49 1384.18 47.48 1387.34 48.7 1388.67C49.92 1390 53.58 1389.79 54.32 1388.67C54.32 1388.67 56.12 1386.38 56.13 1384.67C56.14 1382.96 53.74 1384.54 53.13 1385.39C53.13 1385.39 53.63 1381.33 51.68 1381.33C49.73 1381.33 50.07 1385.36 50.07 1385.36Z" fill="#41AA72"/>
<path d="M35 1388.15C35 1388.15 37.41 1388.4 38.08 1387.08C38.08 1387.08 38.39 1385.93 35 1385.78C35 1385.78 32.28 1385.71 32.19 1386.78C32.09 1388.2 35 1388.15 35 1388.15Z" fill="#9EC92B"/>
<path d="M34.2499 1384.48C34.2499 1384.48 33.4299 1383.22 32.6699 1383.48C31.9099 1383.74 32.5599 1385.79 33.3599 1386.65C34.1599 1387.51 36.5299 1387.38 37.0099 1386.65C37.6174 1385.9 38.0236 1385.01 38.1899 1384.06C38.1899 1382.95 36.6299 1383.97 36.2399 1384.53C36.2399 1384.53 36.5599 1381.89 35.2999 1381.89C34.0399 1381.89 34.2499 1384.48 34.2499 1384.48Z" fill="#79CC03"/>
<path d="M109.68 1194.59C118.036 1194.59 124.81 1192.17 124.81 1189.19C124.81 1186.21 118.036 1183.79 109.68 1183.79C101.324 1183.79 94.55 1186.21 94.55 1189.19C94.55 1192.17 101.324 1194.59 109.68 1194.59Z" fill="#C1D353"/>
<path d="M109.69 1167.04H109.68C108.421 1167.04 107.4 1168.06 107.4 1169.32V1188.24C107.4 1189.5 108.421 1190.52 109.68 1190.52H109.69C110.949 1190.52 111.97 1189.5 111.97 1188.24V1169.32C111.97 1168.06 110.949 1167.04 109.69 1167.04Z" fill="#79CC03"/>
<path d="M97.44 1155.83C97.5809 1155.29 97.8379 1154.78 98.1935 1154.34C98.549 1153.9 98.9947 1153.55 99.5 1153.3C100.99 1152.77 102.98 1153.75 104.67 1155.74C104.52 1152.15 107.19 1149.5 109.59 1149.49C112.19 1149.49 115.07 1152.57 114.43 1156.49C114.57 1156.32 117.26 1153.18 119.72 1153.96C120.196 1154.16 120.628 1154.44 120.992 1154.81C121.356 1155.17 121.644 1155.6 121.84 1156.08C123.96 1160.71 117.93 1173.47 109.39 1173.36C101.07 1173.24 95.63 1161 97.44 1155.83Z" fill="#A962D3"/>
<path d="M115.872 1180.97C118.493 1179.46 120.232 1177.57 119.757 1176.74C119.282 1175.92 116.773 1176.48 114.152 1177.99C111.531 1179.51 109.791 1181.4 110.266 1182.22C110.741 1183.05 113.251 1182.49 115.872 1180.97Z" fill="#79CC03"/>
<path d="M109.085 1181.19C109.408 1180.63 108.22 1179.34 106.431 1178.31C104.642 1177.28 102.93 1176.89 102.607 1177.45C102.284 1178.01 103.472 1179.3 105.261 1180.33C107.05 1181.37 108.762 1181.75 109.085 1181.19Z" fill="#79CC03"/>
<path d="M117.8 1192.41C117.8 1192.41 121.52 1192.8 122.54 1190.78C122.54 1190.78 123.02 1189.01 117.8 1188.78C117.8 1188.78 113.61 1188.68 113.48 1190.28C113.29 1192.5 117.8 1192.41 117.8 1192.41Z" fill="#9EC92B"/>
<path d="M116.61 1186.78C116.61 1186.78 115.35 1184.78 114.19 1185.21C113.03 1185.64 114.02 1188.75 115.25 1190.08C116.48 1191.41 120.12 1191.2 120.87 1190.08C120.87 1190.08 122.67 1187.8 122.68 1186.08C122.69 1184.36 120.28 1185.95 119.68 1186.8C119.68 1186.8 120.18 1182.8 118.23 1182.8C116.28 1182.8 116.61 1186.78 116.61 1186.78Z" fill="#79CC03"/>
<path d="M101.57 1189.56C101.57 1189.56 103.98 1189.81 104.64 1188.5C104.64 1188.5 104.95 1187.35 101.57 1187.19C101.57 1187.19 98.84 1187.13 98.76 1188.19C98.63 1189.61 101.57 1189.56 101.57 1189.56Z" fill="#9EC92B"/>
<path d="M100.79 1185.9C100.79 1185.9 99.9699 1184.63 99.2199 1184.9C98.4699 1185.17 99.1099 1187.2 99.9099 1188.06C100.71 1188.92 103.07 1188.79 103.56 1188.06C104.167 1187.31 104.57 1186.42 104.73 1185.47C104.73 1184.37 103.18 1185.38 102.79 1185.94C102.79 1185.94 103.11 1183.3 101.79 1183.3C100.47 1183.3 100.79 1185.9 100.79 1185.9Z" fill="#41AA72"/>
<path d="M344.3 585.591C352.656 585.591 359.43 583.173 359.43 580.191C359.43 577.209 352.656 574.791 344.3 574.791C335.944 574.791 329.17 577.209 329.17 580.191C329.17 583.173 335.944 585.591 344.3 585.591Z" fill="#C1D353"/>
<path d="M344.31 558.031H344.3C343.041 558.031 342.02 559.052 342.02 560.311V579.231C342.02 580.49 343.041 581.511 344.3 581.511H344.31C345.569 581.511 346.59 580.49 346.59 579.231V560.311C346.59 559.052 345.569 558.031 344.31 558.031Z" fill="#79CC03"/>
<path d="M332.06 546.83C332.205 546.286 332.464 545.778 332.819 545.34C333.174 544.902 333.617 544.545 334.12 544.29C335.61 543.76 337.61 544.74 339.29 546.74C339.14 543.14 341.81 540.49 344.22 540.49C346.82 540.49 349.7 543.56 349.05 547.49C349.19 547.32 351.88 544.19 354.35 544.97C354.824 545.164 355.255 545.451 355.617 545.813C355.979 546.175 356.266 546.606 356.46 547.08C358.59 551.71 352.56 564.48 344.01 564.37C335.69 564.23 330.26 552 332.06 546.83Z" fill="#F9CC10"/>
<path d="M350.497 571.971C353.118 570.457 354.858 568.564 354.383 567.741C353.908 566.918 351.398 567.478 348.777 568.991C346.156 570.505 344.416 572.398 344.891 573.221C345.366 574.044 347.876 573.484 350.497 571.971Z" fill="#79CC03"/>
<path d="M343.707 572.191C344.03 571.631 342.842 570.34 341.053 569.307C339.264 568.275 337.552 567.891 337.229 568.451C336.906 569.01 338.094 570.301 339.883 571.334C341.672 572.367 343.384 572.75 343.707 572.191Z" fill="#79CC03"/>
<path d="M352.43 583.411C352.43 583.411 356.14 583.801 357.16 581.771C357.16 581.771 357.64 580.001 352.43 579.771C352.43 579.771 348.24 579.671 348.1 581.271C347.92 583.491 352.43 583.411 352.43 583.411Z" fill="#9EC92B"/>
<path d="M351.24 577.771C351.24 577.771 349.98 575.831 348.82 576.201C347.66 576.571 348.65 579.751 349.88 581.071C351.11 582.391 354.75 582.201 355.5 581.071C355.5 581.071 357.29 578.791 357.3 577.071C357.31 575.351 354.91 576.931 354.3 577.781C354.3 577.781 354.81 573.781 352.85 573.781C350.89 573.781 351.24 577.771 351.24 577.771Z" fill="#79CC03"/>
<path d="M336.19 580.55C336.19 580.55 338.61 580.81 339.27 579.49C339.27 579.49 339.58 578.34 336.19 578.19C336.19 578.19 333.47 578.12 333.38 579.19C333.26 580.61 336.19 580.55 336.19 580.55Z" fill="#9EC92B"/>
<path d="M335.42 576.891C335.42 576.891 334.6 575.631 333.85 575.891C333.1 576.151 333.74 578.191 334.53 579.061C335.32 579.931 337.7 579.791 338.19 579.061C338.791 578.309 339.194 577.419 339.36 576.471C339.36 575.361 337.8 576.381 337.41 576.931C337.41 576.931 337.74 574.301 336.47 574.301C335.2 574.301 335.42 576.891 335.42 576.891Z" fill="#41AA72"/>
<path d="M84.41 1593.39C106.049 1593.39 123.59 1586.95 123.59 1579C123.59 1571.05 106.049 1564.61 84.41 1564.61C62.7715 1564.61 45.23 1571.05 45.23 1579C45.23 1586.95 62.7715 1593.39 84.41 1593.39Z" fill="#C1D353"/>
<path d="M53.9098 1571C53.9098 1571 50.6999 1556.9 56.7899 1554.2C66.3099 1549.99 98.1399 1559.8 98.1399 1559.8C98.1399 1559.8 102.49 1576.1 94.1399 1578.31C85.7898 1580.52 73.9699 1578.31 73.9699 1578.31C73.9699 1578.31 53.1898 1576.3 53.9098 1571Z" fill="#C6C077"/>
<path d="M54.6099 1556.12C54.6099 1556.12 64.6099 1540.83 75.0499 1541.36C85.4899 1541.89 95.7299 1551.55 95.7299 1551.55C95.7299 1551.55 102.49 1566.62 94.1799 1568.84C85.8699 1571.06 62.5799 1564.94 62.5799 1564.94C62.5799 1564.94 53.8799 1561.44 54.6099 1556.12Z" fill="#EAE081"/>
<path d="M121.29 1577.87C121.29 1577.87 122.91 1566.35 119.36 1563.5C113.82 1559.05 94.36 1566.98 94.36 1566.98C94.36 1566.98 88.29 1578.49 93.36 1581.41C97.5 1583.78 104.3 1584.6 107.45 1584.75C108.747 1584.76 110.043 1584.66 111.32 1584.43C114.29 1583.64 119.82 1580.19 121.29 1577.87Z" fill="#C6C077"/>
<path d="M119.73 1570C119.73 1570 123.07 1563.34 116.11 1561.87C109.75 1560.53 104.51 1560.35 102.52 1561.02C99.9081 1561.9 97.5195 1563.34 95.5199 1565.24C94.5199 1566.64 91.1899 1571.24 92.7799 1573.82C93.0054 1574.2 93.3218 1574.51 93.6999 1574.73C96.9399 1576.59 102.7 1577.43 106.42 1577.79C108.862 1578.04 111.319 1577.49 113.42 1576.22C116.12 1574.62 119.46 1572.18 119.73 1570Z" fill="#EAE081"/>
<path d="M69.6999 1587.05C68.6524 1585.82 67.9607 1584.33 67.6999 1582.74C67.1299 1579.25 66.4099 1572.74 68.6999 1570.86C73.6399 1566.86 92.8899 1575.29 92.8899 1575.29C92.8899 1575.29 96.2599 1584.42 93.7499 1588.1C91.3499 1591.6 87.2099 1591.43 84.4099 1591.56C83.7199 1591.56 78.4999 1591.46 77.8299 1591.28C75.8999 1590.78 71.4699 1589.1 69.6999 1587.05Z" fill="#C6C077"/>
<path d="M67.3998 1575.62C67.3998 1575.62 66.1498 1570.3 72.3398 1568.99C77.9898 1567.79 79.7198 1569.21 81.4998 1569.8C84.4998 1570.8 88.6898 1571.09 89.8098 1572.16C90.7498 1573.41 94.0998 1575.59 94.1798 1578.29C94.2598 1580.99 93.7298 1583.06 93.1798 1583.38C88.6798 1585.98 89.8298 1585.97 86.4898 1586.29C84.3298 1586.51 77.3798 1585.76 75.4898 1584.63C73.1198 1583.19 68.8498 1581.17 67.3998 1575.62Z" fill="#EAE081"/>
<path d="M57.31 1580.31C57.31 1580.31 60.43 1580.64 61.31 1578.94C61.31 1578.94 61.71 1577.45 57.31 1577.25C57.31 1577.25 53.78 1577.16 53.67 1578.51C53.51 1580.39 57.31 1580.31 57.31 1580.31Z" fill="#9EC92B"/>
<path d="M56.2999 1575.57C56.2999 1575.57 55.2399 1573.94 54.2999 1574.25C53.3599 1574.56 54.1599 1577.25 55.1899 1578.35C56.2199 1579.45 59.2899 1579.35 59.9199 1578.35C59.9199 1578.35 61.4299 1576.43 61.4399 1575C61.4499 1573.57 59.4399 1574.88 58.9099 1575.6C58.9099 1575.6 59.3399 1572.19 57.6899 1572.19C56.0399 1572.19 56.2999 1575.57 56.2999 1575.57Z" fill="#41AA72"/>
<path d="M61.4999 1583.61C61.4999 1583.61 64.6199 1583.93 65.4999 1582.23C65.4999 1582.23 65.8999 1580.74 61.4999 1580.54C61.4999 1580.54 57.9699 1580.46 57.8599 1581.8C57.6999 1583.68 61.4999 1583.61 61.4999 1583.61Z" fill="#9EC92B"/>
<path d="M60.4998 1578.86C60.4998 1578.86 59.4398 1577.23 58.4998 1577.54C57.5598 1577.85 58.3598 1580.54 59.3898 1581.64C60.4198 1582.74 63.4898 1582.59 64.1198 1581.64C64.1198 1581.64 65.6298 1579.72 65.6398 1578.29C65.6498 1576.86 63.6398 1578.18 63.1198 1578.89C63.1198 1578.89 63.5398 1575.48 61.8898 1575.48C60.2398 1575.48 60.4998 1578.86 60.4998 1578.86Z" fill="#79CC03"/>
<path d="M51.0999 788.36C72.7384 788.36 90.2799 781.917 90.2799 773.97C90.2799 766.023 72.7384 759.58 51.0999 759.58C29.4614 759.58 11.9199 766.023 11.9199 773.97C11.9199 781.917 29.4614 788.36 51.0999 788.36Z" fill="#C1D353"/>
<path d="M78.7299 766.481C78.7299 766.481 81.7299 753.271 76.0299 750.741C67.1199 746.741 37.2999 755.981 37.2999 755.981C37.2999 755.981 33.2199 771.251 40.9999 773.331C48.7799 775.411 59.8899 773.331 59.8899 773.331C59.8899 773.331 79.4199 771.461 78.7299 766.481Z" fill="#C6C077"/>
<path d="M78.08 752.56C78.08 752.56 68.67 738.22 58.93 738.72C49.19 739.22 39.55 748.27 39.55 748.27C39.55 748.27 33.22 762.39 41.01 764.47C48.8 766.55 70.61 760.81 70.61 760.81C70.61 760.81 78.76 757.54 78.08 752.56Z" fill="#EAE081"/>
<path d="M19.6999 773.41C19.6999 773.41 18.3599 763.9 21.2899 761.55C25.8699 757.88 41.9198 764.42 41.9198 764.42C41.9198 764.42 46.9198 773.92 42.7298 776.33C39.3098 778.33 33.7299 778.96 31.0999 779.08C30.0272 779.099 28.9553 779.012 27.8998 778.82C25.4798 778.17 20.9199 775.32 19.6999 773.41Z" fill="#C6C077"/>
<path d="M20.9998 766.93C20.9998 766.93 18.2498 761.43 23.9998 760.22C29.2498 759.11 33.5698 758.96 35.2198 759.52C37.3581 760.248 39.3106 761.436 40.9398 763C41.8098 764.16 44.5198 767.94 43.1998 770.08C43.015 770.388 42.7575 770.646 42.4498 770.83C39.7698 772.36 35.0398 773.06 31.9398 773.36C29.9296 773.564 27.9079 773.107 26.1798 772.06C23.9998 770.73 21.2098 768.71 20.9998 766.93Z" fill="#EAE081"/>
<path d="M66.12 782.001C67.1732 780.758 67.865 779.25 68.12 777.641C68.7 774.121 69.43 767.491 67.12 765.641C62.12 761.641 42.65 770.121 42.65 770.121C42.65 770.121 39.24 779.361 41.79 783.071C44.21 786.611 48.4 786.441 51.23 786.581C51.93 786.581 57.23 786.481 57.89 786.301C59.84 785.771 64.33 784.071 66.12 782.001Z" fill="#C6C077"/>
<path d="M68.45 770.45C68.45 770.45 69.71 765.059 63.45 763.729C57.73 762.519 55.98 763.96 54.19 764.56C51.19 765.56 46.91 765.86 45.78 766.94C44.78 768.2 41.44 770.41 41.36 773.15C41.28 775.89 41.82 777.97 42.36 778.3C46.91 780.92 45.75 780.91 49.12 781.24C51.32 781.45 58.35 780.7 60.23 779.56C62.66 778.1 67 776.05 68.45 770.45Z" fill="#EAE081"/>
<path d="M78.1999 775.29C78.1999 775.29 75.0699 775.62 74.1999 773.91C74.1999 773.91 73.7999 772.42 78.1999 772.22C78.1999 772.22 81.7199 772.14 81.8399 773.48C81.9999 775.36 78.1999 775.29 78.1999 775.29Z" fill="#9EC92B"/>
<path d="M79.1999 770.55C79.1999 770.55 80.2599 768.91 81.1999 769.23C82.1399 769.55 81.3399 772.23 80.3099 773.33C79.2799 774.43 76.2099 774.27 75.5799 773.33C75.5799 773.33 74.0699 771.41 74.0599 769.97C74.0499 768.53 76.0599 769.86 76.5799 770.57C76.5799 770.57 76.1599 767.16 77.7999 767.16C79.4399 767.16 79.1999 770.55 79.1999 770.55Z" fill="#41AA72"/>
<path d="M73.9999 778.581C73.9999 778.581 70.8699 778.911 69.9999 777.201C69.9999 777.201 69.5999 775.711 73.9999 775.511C73.9999 775.511 77.5199 775.431 77.6399 776.771C77.7999 778.651 73.9999 778.581 73.9999 778.581Z" fill="#9EC92B"/>
<path d="M74.9999 773.839C74.9999 773.839 76.0599 772.199 76.9999 772.519C77.9399 772.839 77.1499 775.519 76.1099 776.619C75.0699 777.719 72.0199 777.559 71.3899 776.619C71.3899 776.619 69.8699 774.699 69.8699 773.259C69.8699 771.819 71.8699 773.149 72.3899 773.869C72.3899 773.869 71.9699 770.459 73.6099 770.459C75.2499 770.459 74.9999 773.839 74.9999 773.839Z" fill="#F9CC10"/>
<path d="M344.57 1121.62C362.768 1121.62 377.52 1116.2 377.52 1109.52C377.52 1102.84 362.768 1097.42 344.57 1097.42C326.372 1097.42 311.62 1102.84 311.62 1109.52C311.62 1116.2 326.372 1121.62 344.57 1121.62Z" fill="#C1D353"/>
<path d="M355.83 1105.31C355.83 1105.31 356.52 1096.39 353.96 1093.54C349.22 1088.28 325.09 1098.02 325.09 1098.02C325.09 1098.02 322.8 1108.78 328.46 1110.28C334.12 1111.78 342.17 1110.28 342.17 1110.28C342.17 1110.28 356.33 1108.93 355.83 1105.31Z" fill="#C6C077"/>
<path d="M354.33 1096.78C354.66 1096.46 354.863 1096.03 354.9 1095.57C354.937 1095.11 354.805 1094.66 354.53 1094.29C352.53 1091.58 346.94 1084.88 341.31 1085.17C334.24 1085.53 328.94 1091.17 328.94 1091.17C328.94 1091.17 321.38 1099.07 327.17 1102.97C332.03 1106.24 344.06 1102.04 344.06 1102.04C344.06 1102.04 351.44 1099.62 354.33 1096.78Z" fill="#EAE081"/>
<path d="M369 1109.79C369.301 1109.46 369.533 1109.07 369.685 1108.65C369.836 1108.23 369.902 1107.79 369.88 1107.34C369.79 1104.95 369.48 1099.98 368.64 1099.24C365 1096.04 351.57 1102.68 351.57 1102.68C351.57 1102.68 350.37 1108.89 351.36 1111.59C352.48 1114.64 356.36 1113.37 358.5 1113.48C359.816 1113.39 361.125 1113.22 362.42 1112.97C364 1112.55 367.6 1111.34 369 1109.79Z" fill="#C6C077"/>
<path d="M366.89 1098.26C362.55 1097.34 358.97 1097.26 357.61 1097.68C355.84 1098.28 354.223 1099.27 352.87 1100.56C352.15 1101.56 349.87 1104.65 351 1106.42C351.149 1106.68 351.363 1106.89 351.62 1107.04C353.83 1108.31 359.85 1108.38 365.28 1106.39C367.28 1105.66 371.64 1099.26 366.89 1098.26Z" fill="#EAE081"/>
<path d="M339.89 1114.72C339.111 1114.08 338.522 1113.25 338.19 1112.3C337.47 1110.24 336.45 1106.36 337.52 1104.96C339.9 1101.84 352.75 1105.06 352.75 1105.06C352.75 1105.06 355.75 1110.27 354.65 1112.78C353.55 1115.29 351.02 1115.51 349.33 1115.89C347.99 1116.14 346.638 1116.32 345.28 1116.43C344.08 1116.33 341.19 1115.78 339.89 1114.72Z" fill="#C6C077"/>
<path d="M337.26 1108C337.26 1108 335.92 1104.88 339.56 1103.42C341.319 1102.54 343.346 1102.37 345.23 1102.93C347.18 1103.22 349.76 1102.93 350.56 1103.47C351.36 1104.01 353.56 1105.11 353.88 1106.75C354.2 1108.39 354.12 1109.75 353.82 1109.96C351.35 1112.03 352.05 1111.9 350.05 1112.45C348.75 1112.82 344.43 1113.11 343.17 1112.62C341.57 1112 338.74 1111.22 337.26 1108Z" fill="#EAE081"/>
<path d="M327.4 1116.25C327.4 1116.25 331.49 1116.68 332.62 1114.45C332.62 1114.45 333.14 1112.45 327.4 1112.23C327.4 1112.23 322.79 1112.13 322.64 1113.88C322.43 1116.34 327.4 1116.25 327.4 1116.25Z" fill="#9EC92B"/>
<path d="M326.09 1110C326.09 1110 324.7 1107.86 323.43 1108.27C322.16 1108.68 323.24 1112.17 324.59 1113.64C325.94 1115.11 329.95 1114.88 330.78 1113.64C330.78 1113.64 332.78 1111.12 332.78 1109.25C332.78 1107.38 330.14 1109.1 329.48 1110.04C329.48 1110.04 330.03 1105.57 327.88 1105.57C325.73 1105.57 326.09 1110 326.09 1110Z" fill="#F9CC10"/>
<path d="M343.55 1428.69C363.526 1428.69 379.72 1422.74 379.72 1415.41C379.72 1408.07 363.526 1402.13 343.55 1402.13C323.574 1402.13 307.38 1408.07 307.38 1415.41C307.38 1422.74 323.574 1428.69 343.55 1428.69Z" fill="#C1D353"/>
<path d="M355.91 1410.79C355.91 1410.79 356.66 1400.99 353.85 1397.87C348.65 1392.1 322.16 1402.79 322.16 1402.79C322.16 1402.79 319.65 1414.6 325.86 1416.25C332.07 1417.9 340.91 1416.25 340.91 1416.25C340.91 1416.25 356.45 1414.76 355.91 1410.79Z" fill="#C6C077"/>
<path d="M354.26 1401.43C354.622 1401.08 354.843 1400.6 354.884 1400.1C354.924 1399.6 354.781 1399.1 354.48 1398.69C352.26 1395.69 346.15 1388.37 339.96 1388.69C332.21 1389.09 326.39 1395.3 326.39 1395.3C326.39 1395.3 318.09 1403.97 324.45 1408.3C329.78 1411.89 342.98 1407.3 342.98 1407.3C342.98 1407.3 351.09 1404.54 354.26 1401.43Z" fill="#EAE081"/>
<path d="M370.4 1415.71C371.077 1414.98 371.436 1414.01 371.4 1413.02C371.29 1410.39 370.96 1404.94 370.03 1404.13C366.03 1400.61 351.29 1407.91 351.29 1407.91C351.29 1407.91 349.97 1414.72 351.06 1417.68C352.3 1421.03 356.55 1419.68 358.9 1419.75C360.347 1419.66 361.786 1419.47 363.21 1419.2C364.91 1418.74 368.83 1417.41 370.4 1415.71Z" fill="#C6C077"/>
<path d="M368.05 1403.05C363.29 1402.05 359.36 1401.91 357.87 1402.41C355.921 1403.08 354.14 1404.16 352.65 1405.58C351.86 1406.63 349.41 1410.07 350.65 1412.01C350.821 1412.29 351.058 1412.52 351.34 1412.69C353.77 1414.08 360.34 1414.15 366.34 1411.98C368.48 1411.18 373.26 1404.15 368.05 1403.05Z" fill="#EAE081"/>
<path d="M349.31 1424.53C350.47 1423.59 351.345 1422.34 351.84 1420.93C352.92 1417.86 354.44 1412.07 352.84 1409.93C349.29 1405.29 330.15 1410.08 330.15 1410.08C330.15 1410.08 325.62 1417.84 327.32 1421.58C328.93 1425.15 332.72 1425.66 335.25 1426.23C335.87 1426.37 340.64 1427.09 341.25 1427.03C343.07 1426.92 347.37 1426.1 349.31 1424.53Z" fill="#C6C077"/>
<path d="M353.23 1414.51C353.23 1414.51 355.23 1409.86 349.8 1407.68C344.85 1405.68 343.05 1406.68 341.35 1406.96C338.45 1407.4 334.6 1406.96 333.41 1407.77C332.36 1408.77 328.96 1410.2 328.41 1412.65C327.86 1415.1 328.05 1417.06 328.51 1417.44C332.18 1420.52 331.14 1420.32 334.12 1421.15C336.06 1421.69 342.5 1422.15 344.37 1421.4C346.81 1420.47 351 1419.31 353.23 1414.51Z" fill="#EAE081"/>
<path d="M317.19 1420.4C317.19 1420.4 321.68 1420.87 322.92 1418.4C322.92 1418.4 323.49 1416.26 317.19 1415.97C317.19 1415.97 312.13 1415.85 311.97 1417.78C311.74 1420.5 317.19 1420.4 317.19 1420.4Z" fill="#9EC92B"/>
<path d="M315.75 1413.58C315.75 1413.58 314.23 1411.24 312.83 1411.69C311.43 1412.14 312.62 1415.97 314.11 1417.58C315.6 1419.19 319.99 1418.93 320.9 1417.58C320.9 1417.58 323.07 1414.82 323.08 1412.76C323.09 1410.7 320.19 1412.6 319.46 1413.62C319.46 1413.62 320.06 1408.72 317.7 1408.72C315.34 1408.72 315.75 1413.58 315.75 1413.58Z" fill="#FA780E"/>
<path d="M242.53 570.54C242.252 570.388 241.947 570.296 241.632 570.268C241.317 570.241 241 570.279 240.7 570.38L243.17 571.17C243.026 570.9 242.803 570.68 242.53 570.54Z" fill="#C1D353"/>
<path d="M240.92 571.36L240.76 571.43L240.51 571.58L239.37 571.21C239.25 571.335 239.14 571.469 239.04 571.61L240.11 571.97L240.06 572.04L239.94 572.23V572.29L238.8 572C238.71 572.13 238.63 572.27 238.54 572.43L239.63 572.81L239.57 572.93L239.5 573.07V573.14L238.38 572.76L238.15 573.19L239.27 573.59L239.11 573.93L237.98 573.53L237.74 574L242.14 575.54L242.38 575.09L241.31 574.71L241.49 574.38L242.56 574.75C242.64 574.6 242.72 574.45 242.8 574.28L241.74 573.92V573.86C241.765 573.788 241.795 573.718 241.83 573.65V573.58L242.89 573.95C242.965 573.791 243.028 573.628 243.08 573.46L242 573C242 572.93 242 572.86 242 572.79V572.69L243.11 573.07C243.11 572.89 243.19 572.72 243.22 572.56L242.05 572.17C242.056 572.094 242.056 572.017 242.05 571.94V571.8L243.32 572.22C243.341 572.034 243.341 571.846 243.32 571.66L240.17 570.66C239.997 570.743 239.833 570.844 239.68 570.96H239.63L240.92 571.36Z" fill="#C1D353"/>
<path d="M230.21 583.439L234.89 585.759C235.09 585.67 235.284 585.566 235.47 585.449L230.33 582.939C230.281 583.104 230.24 583.271 230.21 583.439Z" fill="#C1D353"/>
<path d="M230.45 582.579L235.85 585.209C236.017 585.095 236.177 584.971 236.33 584.839L230.64 582.109C230.57 582.269 230.51 582.429 230.45 582.579Z" fill="#C1D353"/>
<path d="M235.35 577.12L240.18 579.12L240.42 578.64L235.79 576.75L235.35 577.12Z" fill="#C1D353"/>
<path d="M230.8 585.669C231.03 585.857 231.295 585.996 231.58 586.079C232.033 586.219 232.506 586.28 232.98 586.259L230.25 584.869C230.353 585.183 230.544 585.461 230.8 585.669Z" fill="#C1D353"/>
<path d="M232 579.919C231.91 580.039 231.83 580.159 231.74 580.269L237.96 583.139L238.27 582.689L232 579.869V579.919Z" fill="#C1D353"/>
<path d="M234.55 577.68L239.8 579.92L240.05 579.44L235.05 577.35L234.55 577.68Z" fill="#C1D353"/>
<path d="M233.68 578.3L239.35 580.76L239.59 580.29L234.14 578L233.68 578.3Z" fill="#C1D353"/>
<path d="M231.23 581L237.33 583.87C237.45 583.74 237.57 583.59 237.69 583.44L231.5 580.58C231.403 580.715 231.313 580.856 231.23 581Z" fill="#C1D353"/>
<path d="M232.92 578.911L238.92 581.571C239.01 581.421 239.09 581.261 239.18 581.101L233.35 578.561C233.18 578.681 233 578.801 232.92 578.911Z" fill="#C1D353"/>
<path d="M236.09 576.49L240.59 578.33L240.89 577.74L236.5 576C236.379 576.176 236.242 576.34 236.09 576.49Z" fill="#C1D353"/>
<path d="M230.8 581.77L236.64 584.57C236.787 584.444 236.927 584.311 237.06 584.17L231.06 581.34C230.966 581.478 230.879 581.622 230.8 581.77Z" fill="#C1D353"/>
<path d="M230.15 584.4L233.66 586.17C233.922 586.12 234.179 586.05 234.43 585.96L230.15 583.83C230.14 584.02 230.14 584.21 230.15 584.4Z" fill="#C1D353"/>
<path d="M232.26 579.569L238.45 582.369C238.54 582.239 238.63 582.079 238.73 581.899L232.62 579.189C232.49 579.319 232.37 579.439 232.26 579.569Z" fill="#C1D353"/>
<path d="M216.52 595.311L212.07 592.711C212.092 592.518 212.129 592.328 212.18 592.141L217 595.001L216.52 595.311Z" fill="#C1D353"/>
<path d="M217.39 594.78L212.3 591.78C212.37 591.61 212.44 591.44 212.52 591.27L217.83 594.479C217.688 594.587 217.542 594.687 217.39 594.78Z" fill="#C1D353"/>
<path d="M221.54 588.931L217.37 586.091L217.8 585.711L221.75 588.451C221.68 588.601 221.61 588.751 221.54 588.931Z" fill="#C1D353"/>
<path d="M213.79 595.75C213.512 595.66 213.254 595.518 213.03 595.33C212.706 595.057 212.446 594.716 212.27 594.33L214.9 595.84C214.528 595.888 214.15 595.857 213.79 595.75Z" fill="#C1D353"/>
<path d="M219.75 592.589L219.46 592.919L213.79 589.369L214.17 588.949L219.79 592.529L219.75 592.589Z" fill="#C1D353"/>
<path d="M221.23 589.751L216.64 586.681L217.08 586.311L221.41 589.261L221.23 589.751Z" fill="#C1D353"/>
<path d="M220.89 590.66L215.89 587.36L216.33 586.98L221.09 590.17C221 590.34 221 590.5 220.89 590.66Z" fill="#C1D353"/>
<path d="M218.83 593.58L213.2 590.11C213.3 589.97 213.42 589.83 213.54 589.67L219.19 593.21L218.83 593.58Z" fill="#C1D353"/>
<path d="M220.5 591.469L215.15 587.999L215.58 587.619L220.73 591.019C220.65 591.179 220.58 591.329 220.5 591.469Z" fill="#C1D353"/>
<path d="M222 588.11L218.16 585.45L218.7 584.99L222.36 587.63C222.224 587.778 222.104 587.939 222 588.11Z" fill="#C1D353"/>
<path d="M218.15 594.2L212.7 590.91C212.79 590.74 212.88 590.59 212.98 590.43L218.54 593.85L218.15 594.2Z" fill="#C1D353"/>
<path d="M215.47 595.731L212.1 593.801C212.051 593.581 212.028 593.356 212.03 593.131L216.1 595.511C215.896 595.602 215.686 595.675 215.47 595.731Z" fill="#C1D353"/>
<path d="M220 592.229L214.41 588.669L214.83 588.27L220.28 591.81L220 592.229Z" fill="#C1D353"/>
<path d="M164.21 640.05C163.933 639.898 163.627 639.806 163.312 639.778C162.997 639.751 162.68 639.789 162.38 639.89L164.85 640.69C164.707 640.416 164.484 640.193 164.21 640.05Z" fill="#C1D353"/>
<path d="M162.6 640.871L162.44 640.951L162.19 641.091L161.06 640.721C160.94 640.846 160.83 640.979 160.73 641.121L161.8 641.491V641.551L161.68 641.741V641.811L160.61 641.441C160.52 641.571 160.44 641.711 160.35 641.871L161.44 642.251L161.38 642.371L161.31 642.511V642.581L160.2 642.201L159.97 642.641L161.09 643.031L160.93 643.371L159.8 642.971L159.56 643.441L163.96 644.991L164.2 644.531L163.13 644.151L163.31 643.821L164.38 644.201L164.62 643.731L163.56 643.361V643.301C163.585 643.232 163.615 643.165 163.65 643.101V643.021L164.71 643.391C164.785 643.232 164.848 643.068 164.9 642.901L163.82 642.541V642.481L163.88 642.271V642.181L164.99 642.551C164.99 642.381 165.07 642.201 165.1 642.041L163.93 641.651C163.936 641.574 163.936 641.497 163.93 641.421V641.281L165.2 641.701C165.221 641.515 165.221 641.327 165.2 641.141L162.05 640.141C161.879 640.227 161.715 640.328 161.56 640.441H161.51L162.6 640.871Z" fill="#C1D353"/>
<path d="M151.89 652.999L156.57 655.329C156.76 655.229 156.96 655.129 157.15 655.009L152 652.449C152 652.619 151.92 652.789 151.89 652.999Z" fill="#C1D353"/>
<path d="M152.13 652.091L157.53 654.721L158.01 654.361L152.32 651.631L152.13 652.091Z" fill="#C1D353"/>
<path d="M157 646.63L161.83 648.63L162.07 648.15L157.44 646.26L157 646.63Z" fill="#C1D353"/>
<path d="M152.48 655.191C152.711 655.375 152.976 655.511 153.26 655.591C153.713 655.732 154.186 655.792 154.66 655.771L151.93 654.391C152.033 654.705 152.224 654.982 152.48 655.191Z" fill="#C1D353"/>
<path d="M153.65 649.431L153.39 649.791L159.61 652.651C159.71 652.511 159.82 652.361 159.92 652.201L153.69 649.381L153.65 649.431Z" fill="#C1D353"/>
<path d="M156.23 647.189L161.48 649.429L161.73 648.959L156.73 646.859L156.23 647.189Z" fill="#C1D353"/>
<path d="M155.36 647.811L161.03 650.281L161.27 649.801L155.82 647.471L155.36 647.811Z" fill="#C1D353"/>
<path d="M152.91 650.52L159.01 653.39C159.137 653.253 159.257 653.109 159.37 652.96L153.17 650.1C153.08 650.24 153 650.38 152.91 650.52Z" fill="#C1D353"/>
<path d="M154.59 648.42L160.59 651.08C160.68 650.93 160.76 650.77 160.85 650.61L155 648.07L154.59 648.42Z" fill="#C1D353"/>
<path d="M157.77 645.999L162.27 647.839L162.57 647.249L158.18 645.529C158.055 645.696 157.918 645.853 157.77 645.999Z" fill="#C1D353"/>
<path d="M152.48 651.29L158.32 654.09C158.47 653.95 158.61 653.82 158.74 653.68L152.74 650.85C152.63 651 152.55 651.14 152.48 651.29Z" fill="#C1D353"/>
<path d="M151.83 653.91L155.34 655.69C155.601 655.632 155.858 655.558 156.11 655.47L151.83 653.34C151.82 653.53 151.82 653.72 151.83 653.91Z" fill="#C1D353"/>
<path d="M153.94 649.079L160.13 651.879C160.22 651.749 160.31 651.589 160.41 651.409L154.3 648.699L153.94 649.079Z" fill="#C1D353"/>
<path d="M147.71 650.41C147.969 650.526 148.191 650.71 148.353 650.942C148.515 651.175 148.611 651.447 148.63 651.73L146.75 650.18C147.084 650.175 147.414 650.254 147.71 650.41Z" fill="#C1D353"/>
<path d="M147.44 652V652.15C147.43 652.232 147.41 652.312 147.38 652.39L148.25 653.1C148.147 653.242 148.037 653.379 147.92 653.51L147.1 652.85L147.04 652.91L146.87 653.07L146.82 653.13L147.65 653.8L147.28 654.16L146.42 653.48L146.31 653.58L146.18 653.69L146.11 653.74L146.98 654.43C146.86 654.55 146.72 654.66 146.59 654.78L145.7 654.09L145.39 654.35L146.28 655.04L145.85 655.41L142.38 652.7L142.8 652.34L143.65 653L143.94 652.73L143.1 652.08C143.233 651.949 143.373 651.825 143.52 651.71L144.36 652.36V652.31L144.55 652.17L144.63 652.11L143.79 651.46L144.26 651.12L145.1 651.79L145.32 651.66H145.41L144.56 650.97C144.731 650.866 144.908 650.773 145.09 650.69L145.98 651.41L146.26 651.34H146.43L145.43 650.54C145.639 650.461 145.852 650.397 146.07 650.35L148.46 652.35C148.429 652.515 148.378 652.676 148.31 652.83L147.44 652Z" fill="#C1D353"/>
<path d="M138.2 664.82L133.75 662.22C133.772 662.028 133.809 661.837 133.86 661.65L138.71 664.53C138.54 664.64 138.37 664.73 138.2 664.82Z" fill="#C1D353"/>
<path d="M139.07 664.299L133.98 661.299C134.05 661.129 134.12 660.959 134.2 660.789L139.51 663.999L139.07 664.299Z" fill="#C1D353"/>
<path d="M143.22 658.44L139.05 655.6L139.48 655.23L143.48 657.97C143.36 658.11 143.29 658.26 143.22 658.44Z" fill="#C1D353"/>
<path d="M135.47 665.26C135.19 665.174 134.931 665.031 134.71 664.84C134.381 664.571 134.121 664.228 133.95 663.84L136.58 665.35C136.208 665.402 135.829 665.372 135.47 665.26Z" fill="#C1D353"/>
<path d="M141.43 662.101L141.14 662.431L135.47 658.881C135.59 658.741 135.72 658.601 135.85 658.471L141.47 662.051L141.43 662.101Z" fill="#C1D353"/>
<path d="M142.91 659.261L138.32 656.181L138.76 655.811L143.09 658.761L142.91 659.261Z" fill="#C1D353"/>
<path d="M142.57 660.17L137.57 656.87L138.01 656.49L142.77 659.68C142.69 659.85 142.63 660 142.57 660.17Z" fill="#C1D353"/>
<path d="M140.51 663.09L134.88 659.63C134.98 659.48 135.09 659.34 135.22 659.18L140.87 662.72L140.51 663.09Z" fill="#C1D353"/>
<path d="M142.18 661.001L136.83 657.531L137.26 657.141L142.41 660.541C142.33 660.701 142.26 660.851 142.18 661.001Z" fill="#C1D353"/>
<path d="M143.63 657.629L139.79 654.999L140.33 654.529L143.99 657.169C143.854 657.309 143.733 657.463 143.63 657.629Z" fill="#C1D353"/>
<path d="M139.83 663.709L134.38 660.419C134.47 660.259 134.56 660.099 134.66 659.939L140.22 663.369L139.83 663.709Z" fill="#C1D353"/>
<path d="M137.15 665.241L133.78 663.311C133.732 663.091 133.708 662.866 133.71 662.641L137.78 665.021C137.577 665.112 137.366 665.185 137.15 665.241Z" fill="#C1D353"/>
<path d="M141.71 661.739L136.12 658.179C136.24 658.059 136.37 657.929 136.53 657.789L141.99 661.319C141.9 661.469 141.8 661.599 141.71 661.739Z" fill="#C1D353"/>
<path d="M210.25 971.161C210.007 970.956 209.724 970.805 209.419 970.717C209.114 970.629 208.794 970.607 208.48 970.651L210.76 971.901C210.669 971.608 210.491 971.35 210.25 971.161Z" fill="#C1D353"/>
<path d="M208.51 971.651L208.34 971.701L208.07 971.791L207.02 971.201C206.881 971.307 206.748 971.421 206.62 971.541L207.62 972.101H207.56L207.4 972.271L206.4 971.711L206.07 972.081L207.07 972.661L206.99 972.771L206.89 972.891L206.84 972.961L205.84 972.371C205.73 972.491 205.63 972.621 205.52 972.751L206.52 973.361L206.3 973.651L205.3 973.051L204.97 973.461L208.97 975.821C209.09 975.671 209.2 975.541 209.29 975.411L208.29 974.841L208.54 974.551L209.54 975.121L209.87 974.711L208.87 974.151V974.091L209 974.001L210 974.561C210.106 974.422 210.2 974.275 210.28 974.121L209.28 973.561L209.37 973.361V973.271L210.37 973.851C210.448 973.694 210.518 973.534 210.58 973.371L209.51 972.771C209.52 972.691 209.52 972.61 209.51 972.531V972.391L210.68 973.041C210.727 972.861 210.75 972.676 210.75 972.491L207.85 970.891C207.668 970.946 207.491 971.016 207.32 971.101H207.26L208.51 971.651Z" fill="#C1D353"/>
<path d="M195.7 981.47L199.85 984.65C200.06 984.59 200.27 984.53 200.48 984.45L195.91 981C195.831 981.153 195.761 981.31 195.7 981.47Z" fill="#C1D353"/>
<path d="M196.1 980.67L200.89 984.29L201.44 984.02L196.37 980.26C196.27 980.4 196.18 980.54 196.1 980.67Z" fill="#C1D353"/>
<path d="M201.94 976.25L206.3 979.15L206.63 978.73L202.45 976L201.94 976.25Z" fill="#C1D353"/>
<path d="M195.85 983.781C196.044 984.005 196.278 984.191 196.54 984.331C196.958 984.554 197.411 984.703 197.88 984.771L195.47 982.891C195.508 983.218 195.64 983.527 195.85 983.781Z" fill="#C1D353"/>
<path d="M198.1 978.359L197.78 978.65L203.33 982.65L203.73 982.27L198.15 978.27L198.1 978.359Z" fill="#C1D353"/>
<path d="M201.06 976.65H201.01L205.74 979.85L206.07 979.42L201.55 976.42L201.06 976.65Z" fill="#C1D353"/>
<path d="M200.08 977.09L205.18 980.59L205.51 980.16L200.6 976.85L200.08 977.09Z" fill="#C1D353"/>
<path d="M197.16 979.28L202.6 983.28C202.75 983.17 202.89 983.06 203.04 982.93L197.5 978.93L197.16 979.28Z" fill="#C1D353"/>
<path d="M199.21 977.539L204.6 981.299L204.94 980.879L199.69 977.279L199.21 977.539Z" fill="#C1D353"/>
<path d="M202.8 975.771L206.86 978.431L207.27 977.911L203.27 975.391C203.121 975.527 202.964 975.654 202.8 975.771Z" fill="#C1D353"/>
<path d="M196.6 979.999L201.8 983.859L202.28 983.549L196.91 979.619C196.798 979.739 196.695 979.866 196.6 979.999Z" fill="#C1D353"/>
<path d="M195.46 982.4L198.56 984.81C198.828 984.81 199.095 984.789 199.36 984.75L195.57 981.85C195.516 982.029 195.479 982.213 195.46 982.4Z" fill="#C1D353"/>
<path d="M198.45 978.07L204 982C204.11 981.89 204.23 981.749 204.36 981.599L198.88 977.77C198.731 977.861 198.587 977.961 198.45 978.07Z" fill="#C1D353"/>
<path d="M192.08 978.18C192.312 978.342 192.496 978.563 192.61 978.823C192.725 979.082 192.766 979.369 192.73 979.65L191.18 977.77C191.51 977.829 191.819 977.97 192.08 978.18Z" fill="#C1D353"/>
<path d="M191.52 979.64L191.47 979.79C191.441 979.866 191.407 979.939 191.37 980.01L192.09 980.87C191.965 980.993 191.831 981.107 191.69 981.21L191 980.4H190.94L190.74 980.53H190.68L191.37 981.34L190.93 981.63L190.22 980.8L190.09 980.87L189.94 980.96H189.87L190.59 981.8L190.14 982.06L189.39 981.22L189.04 981.41L189.79 982.26L189.3 982.54L186.4 979.22L186.88 978.95L187.59 979.76L187.93 979.55L187.22 978.74L187.72 978.46L188.41 979.26H188.47L188.69 979.15H188.77L188.07 978.35L188.6 978.11L189.29 978.93H189.35L189.59 978.85H189.69L188.98 978.01C189.17 977.94 189.37 977.88 189.56 977.83L190.29 978.72C190.383 978.711 190.477 978.711 190.57 978.72H190.75L189.94 977.72C190.158 977.678 190.378 977.655 190.6 977.65L192.6 980.04C192.536 980.198 192.455 980.349 192.36 980.49V980.54L191.52 979.64Z" fill="#C1D353"/>
<path d="M180 990.52L176.12 987.12C176.18 986.94 176.26 986.76 176.34 986.58L180.55 990.34C180.37 990.41 180.18 990.47 180 990.52Z" fill="#C1D353"/>
<path d="M181 990.169L176.58 986.24L176.89 985.77L181.49 989.94L181 990.169Z" fill="#C1D353"/>
<path d="M186.14 985.21L182.59 981.63L183.09 981.35L186.44 984.79C186.331 984.923 186.231 985.063 186.14 985.21Z" fill="#C1D353"/>
<path d="M177.23 990.44C176.975 990.295 176.75 990.101 176.57 989.87C176.302 989.547 176.11 989.167 176.01 988.76L178.31 990.76C177.931 990.733 177.563 990.623 177.23 990.44Z" fill="#C1D353"/>
<path d="M183.69 988.46L183.34 988.74L178.45 984.17L178.9 983.84L183.74 988.42L183.69 988.46Z" fill="#C1D353"/>
<path d="M185.68 986L181.77 982.11C181.93 982.01 182.1 981.92 182.27 981.83L185.95 985.55L185.68 986Z" fill="#C1D353"/>
<path d="M185.17 986.781L180.89 982.591L181.39 982.311L185.45 986.311C185.35 986.501 185.26 986.651 185.17 986.781Z" fill="#C1D353"/>
<path d="M182.6 989.26L177.73 984.79C177.86 984.67 177.99 984.55 178.15 984.42L183 989L182.6 989.26Z" fill="#C1D353"/>
<path d="M184.64 987.511L180.04 983.091L180.54 982.801L184.95 987.111L184.64 987.511Z" fill="#C1D353"/>
<path d="M186.7 984.491L183.44 981.151L184.05 980.801L187.15 984.081C186.986 984.201 186.835 984.339 186.7 984.491Z" fill="#C1D353"/>
<path d="M181.81 989.741L177.09 985.471C177.21 985.331 177.33 985.191 177.46 985.061L182.26 989.481L181.81 989.741Z" fill="#C1D353"/>
<path d="M178.89 990.739L176 988.189C175.99 987.968 176.01 987.746 176.06 987.529L179.6 990.639C179.366 990.688 179.129 990.721 178.89 990.739Z" fill="#C1D353"/>
<path d="M184 988.161L179.19 983.611L179.67 983.301L184.35 987.801C184.241 987.928 184.124 988.048 184 988.161Z" fill="#C1D353"/>
<path d="M125.33 718.681C125.607 718.529 125.913 718.437 126.228 718.409C126.543 718.382 126.86 718.42 127.16 718.521L124.69 719.321C124.833 719.047 125.057 718.824 125.33 718.681Z" fill="#C1D353"/>
<path d="M126.94 719.499L127.1 719.579L127.35 719.719L128.48 719.349C128.597 719.476 128.707 719.61 128.81 719.749L127.74 720.119V720.179L127.86 720.369V720.439L128.93 720.069C129.02 720.199 129.1 720.339 129.19 720.499L128.1 720.879L128.16 720.999C128.16 721.049 128.21 721.089 128.23 721.139V721.209L129.34 720.829L129.57 721.269L128.45 721.659L128.61 721.999L129.74 721.599L129.98 722.069L125.58 723.619L125.34 723.159L126.41 722.779L126.23 722.449L125.16 722.829L124.92 722.359L125.98 721.989V721.929C125.955 721.861 125.925 721.794 125.89 721.729V721.649L124.83 722.019C124.755 721.861 124.692 721.697 124.64 721.529L125.72 721.169V721.109L125.66 720.899V720.809L124.55 721.179C124.507 721.011 124.474 720.841 124.45 720.669L125.61 720.279C125.604 720.203 125.604 720.126 125.61 720.049V719.909L124.34 720.329C124.319 720.147 124.319 719.962 124.34 719.779L127.49 718.779C127.659 718.87 127.823 718.97 127.98 719.079H128.03L126.94 719.499Z" fill="#C1D353"/>
<path d="M137.65 731.58L133 733.91C132.81 733.81 132.61 733.71 132.42 733.59L137.56 731.08C137.58 731.25 137.62 731.42 137.65 731.58Z" fill="#C1D353"/>
<path d="M137.41 730.72L132.01 733.35C131.844 733.239 131.683 733.118 131.53 732.99L137.22 730.26L137.41 730.72Z" fill="#C1D353"/>
<path d="M132.51 725.261L127.68 727.261L127.44 726.791L132.07 724.891L132.51 725.261Z" fill="#C1D353"/>
<path d="M137.06 733.82C136.829 734.004 136.564 734.14 136.28 734.219C135.827 734.36 135.354 734.421 134.88 734.4L137.61 733.02C137.507 733.333 137.316 733.611 137.06 733.82Z" fill="#C1D353"/>
<path d="M135.89 728.06L136.15 728.42L129.93 731.28C129.83 731.14 129.72 730.99 129.62 730.83L135.85 728.01L135.89 728.06Z" fill="#C1D353"/>
<path d="M133.31 725.82L128.06 728.06L127.81 727.59L132.81 725.49L133.31 725.82Z" fill="#C1D353"/>
<path d="M134.18 726.439L128.51 728.909L128.27 728.429L133.72 726.109L134.18 726.439Z" fill="#C1D353"/>
<path d="M136.63 729.151L130.53 732.021C130.403 731.883 130.282 731.74 130.17 731.591L136.37 728.73C136.46 728.87 136.55 729.001 136.63 729.151Z" fill="#C1D353"/>
<path d="M135 727.049L129 729.719L128.74 729.239L134.58 726.699L135 727.049Z" fill="#C1D353"/>
<path d="M131.77 724.63L127.27 726.47L126.97 725.88L131.36 724.16C131.485 724.327 131.622 724.484 131.77 724.63Z" fill="#C1D353"/>
<path d="M137.06 729.92L131.22 732.72C131.07 732.58 130.93 732.45 130.8 732.31L136.8 729.48C136.91 729.63 137 729.77 137.06 729.92Z" fill="#C1D353"/>
<path d="M137.71 732.541L134.2 734.321C133.938 734.266 133.681 734.192 133.43 734.101L137.71 731.971C137.72 732.161 137.72 732.351 137.71 732.541Z" fill="#C1D353"/>
<path d="M135.6 727.71L129.41 730.51C129.32 730.38 129.23 730.22 129.13 730.05L135.24 727.33L135.6 727.71Z" fill="#C1D353"/>
<path d="M141.83 729C141.571 729.115 141.349 729.299 141.187 729.532C141.025 729.765 140.929 730.037 140.91 730.32L142.79 728.77C142.456 728.765 142.126 728.844 141.83 729Z" fill="#C1D353"/>
<path d="M142.1 730.58V730.73C142.111 730.812 142.131 730.893 142.16 730.97L141.29 731.68C141.393 731.823 141.503 731.959 141.62 732.09L142.44 731.43L142.5 731.49L142.67 731.65L142.72 731.71L141.89 732.38L142.26 732.74L143.12 732.07L143.23 732.16L143.36 732.27L143.43 732.32L142.56 733.01C142.68 733.13 142.82 733.24 142.95 733.36L143.84 732.67L144.15 732.93L143.26 733.62L143.69 733.99L147.16 731.28L146.74 730.92L145.89 731.58L145.6 731.31L146.44 730.66C146.307 730.529 146.167 730.406 146.02 730.29L145.18 730.94H145.13L144.94 730.79L144.86 730.73L145.7 730.08L145.23 729.74L144.39 730.41L144.17 730.28H144.08L144.93 729.6C144.761 729.49 144.584 729.393 144.4 729.31L143.51 730.04L143.23 729.98H143.06L144.06 729.18C143.85 729.106 143.637 729.042 143.42 728.99L141.03 730.99C141.062 731.155 141.112 731.316 141.18 731.47V731.53L142.1 730.58Z" fill="#C1D353"/>
<path d="M151.34 743.449L155.79 740.849C155.768 740.657 155.731 740.466 155.68 740.279L150.83 743.159C151 743.269 151.17 743.359 151.34 743.449Z" fill="#C1D353"/>
<path d="M150.47 742.93L155.56 739.93C155.49 739.75 155.42 739.58 155.34 739.41L150 742.6L150.47 742.93Z" fill="#C1D353"/>
<path d="M146.32 737.069L150.49 734.229L150.06 733.859L146.11 736.599C146.18 736.739 146.25 736.899 146.32 737.069Z" fill="#C1D353"/>
<path d="M154.07 743.901C154.348 743.807 154.606 743.661 154.83 743.471C155.159 743.202 155.419 742.859 155.59 742.471L153 744.001C153.36 744.039 153.724 744.005 154.07 743.901Z" fill="#C1D353"/>
<path d="M148.11 740.73L148.4 741.06L154.07 737.51L153.69 737.1L148.07 740.68L148.11 740.73Z" fill="#C1D353"/>
<path d="M146.63 737.89V737.94L151.22 734.86L150.78 734.49L146.45 737.49L146.63 737.89Z" fill="#C1D353"/>
<path d="M147 738.799L152 735.499L151.56 735.119L146.8 738.309L147 738.799Z" fill="#C1D353"/>
<path d="M149 741.721L154.63 738.261C154.53 738.121 154.42 737.971 154.29 737.811L148.64 741.351L149 741.721Z" fill="#C1D353"/>
<path d="M147.36 739.62L152.71 736.15L152.28 735.76L147.13 739.16C147.21 739.33 147.28 739.48 147.36 739.62Z" fill="#C1D353"/>
<path d="M145.91 736.261L149.75 733.601L149.21 733.131L145.55 735.771C145.688 735.92 145.809 736.084 145.91 736.261Z" fill="#C1D353"/>
<path d="M149.71 742.34L155.16 739.05C155.07 738.89 154.98 738.73 154.88 738.58L149.32 742L149.71 742.34Z" fill="#C1D353"/>
<path d="M152.39 743.88L155.76 741.94C155.808 741.72 155.832 741.495 155.83 741.27L151.76 743.65C151.965 743.739 152.175 743.816 152.39 743.88Z" fill="#C1D353"/>
<path d="M147.83 740.37L153.42 736.81L153.01 736.42L147.55 740C147.64 740.1 147.74 740.24 147.83 740.37Z" fill="#C1D353"/>
<path d="M167 1041.61C167.277 1041.46 167.582 1041.36 167.897 1041.33C168.212 1041.3 168.53 1041.34 168.83 1041.44L166.36 1042.24C166.504 1041.97 166.727 1041.75 167 1041.61Z" fill="#C1D353"/>
<path d="M168.58 1042.42L168.74 1042.5C168.826 1042.54 168.91 1042.59 168.99 1042.64L170.12 1042.26C170.24 1042.39 170.35 1042.53 170.45 1042.67L169.38 1043.03L169.43 1043.1L169.55 1043.29V1043.35L170.63 1042.98L170.89 1043.41L169.79 1043.79L169.85 1043.91L169.92 1044.05V1044.13L171.03 1043.74C171.11 1043.88 171.18 1044.03 171.26 1044.18L170.14 1044.58L170.3 1044.91L171.43 1044.51L171.68 1044.98L167.27 1046.53C167.19 1046.36 167.11 1046.21 167.03 1046.07L168.11 1045.69L167.92 1045.36L166.86 1045.74L166.61 1045.27L167.67 1044.9V1044.84C167.634 1044.78 167.604 1044.71 167.58 1044.64V1044.56L166.51 1044.93C166.44 1044.77 166.37 1044.6 166.32 1044.45L167.4 1044.08V1044.02L167.34 1043.81V1043.72L166.24 1044.09C166.189 1043.92 166.152 1043.75 166.13 1043.58L167.29 1043.2C167.283 1043.12 167.283 1043.04 167.29 1042.96V1042.82L166.01 1043.24C166.006 1043.05 166.023 1042.87 166.06 1042.69L169.21 1041.69C169.37 1041.78 169.53 1041.88 169.69 1041.99H169.74L168.58 1042.42Z" fill="#C1D353"/>
<path d="M179.29 1054.5L174.62 1056.83C174.418 1056.74 174.221 1056.63 174.03 1056.52L179.17 1054C179.22 1054.17 179.26 1054.34 179.29 1054.5Z" fill="#C1D353"/>
<path d="M179.05 1053.64L173.66 1056.28L173.17 1055.91L178.86 1053.18C178.93 1053.34 179 1053.49 179.05 1053.64Z" fill="#C1D353"/>
<path d="M174.16 1048.19L169.33 1050.19L169.09 1049.72L173.71 1047.82C173.84 1048 174 1048.06 174.16 1048.19Z" fill="#C1D353"/>
<path d="M178.7 1056.74C178.472 1056.92 178.21 1057.06 177.93 1057.14C177.474 1057.28 176.997 1057.34 176.52 1057.32L179.25 1055.94C179.147 1056.25 178.956 1056.53 178.7 1056.74Z" fill="#C1D353"/>
<path d="M177.53 1051C177.62 1051.11 177.71 1051.23 177.79 1051.35L171.58 1054.22C171.47 1054.07 171.36 1053.92 171.26 1053.76L177.49 1050.95L177.53 1051Z" fill="#C1D353"/>
<path d="M175 1048.75L169.75 1050.99L169.51 1050.51L174.51 1048.41L175 1048.75Z" fill="#C1D353"/>
<path d="M175.83 1049.36L170.16 1051.83L169.91 1051.35L175.36 1049.03L175.83 1049.36Z" fill="#C1D353"/>
<path d="M178.28 1052.07L172.17 1054.94L171.81 1054.51L178.01 1051.65L178.28 1052.07Z" fill="#C1D353"/>
<path d="M176.59 1050L170.59 1052.66L170.33 1052.18L176.17 1049.64L176.59 1050Z" fill="#C1D353"/>
<path d="M173.41 1047.55L168.92 1049.39L168.61 1048.8L173.01 1047.09C173.132 1047.25 173.265 1047.41 173.41 1047.55Z" fill="#C1D353"/>
<path d="M178.7 1052.84L172.86 1055.64L172.44 1055.24L178.44 1052.4C178.55 1052.55 178.63 1052.69 178.7 1052.84Z" fill="#C1D353"/>
<path d="M179.35 1055.46L175.85 1057.24C175.587 1057.19 175.329 1057.12 175.08 1057.02L179.35 1054.9C179.37 1055.09 179.37 1055.27 179.35 1055.46Z" fill="#C1D353"/>
<path d="M177.24 1050.63L171.05 1053.44L170.77 1052.97L176.88 1050.26C177 1050.38 177.13 1050.51 177.24 1050.63Z" fill="#C1D353"/>
<path d="M183.47 1052C183.213 1052.12 182.993 1052.3 182.833 1052.53C182.672 1052.77 182.578 1053.04 182.56 1053.32L184.43 1051.77C184.096 1051.76 183.766 1051.84 183.47 1052Z" fill="#C1D353"/>
<path d="M183.74 1053.5V1053.65C183.74 1053.73 183.74 1053.81 183.8 1053.9L182.93 1054.61C183.026 1054.75 183.133 1054.89 183.25 1055.02L184.08 1054.36L184.14 1054.42L184.3 1054.59V1054.64L183.47 1055.31L183.84 1055.67L184.7 1055L184.82 1055.09L184.94 1055.2L185.01 1055.26L184.14 1055.94L184.54 1056.29L185.43 1055.6L185.73 1055.86L184.84 1056.55L185.27 1056.92L188.74 1054.21L188.33 1053.85L187.48 1054.51L187.18 1054.24L188.03 1053.59L187.6 1053.22L186.77 1053.87H186.71L186.52 1053.72H186.45L187.28 1053.06C187.12 1052.94 186.97 1052.82 186.81 1052.72L185.97 1053.39H185.92L185.7 1053.27L185.61 1053.21L186.46 1052.53C186.29 1052.42 186.11 1052.33 185.94 1052.24L185.04 1052.97L184.76 1052.91H184.59L185.59 1052.11C185.382 1052.03 185.168 1051.97 184.95 1051.93L182.57 1053.93C182.603 1054.09 182.65 1054.25 182.71 1054.41C182.714 1054.43 182.714 1054.45 182.71 1054.47L183.74 1053.5Z" fill="#C1D353"/>
<path d="M193 1066.37L197.46 1063.77C197.43 1063.58 197.39 1063.39 197.34 1063.2L192.49 1066.09C192.64 1066.19 192.81 1066.29 193 1066.37Z" fill="#C1D353"/>
<path d="M192.12 1065.85L197.2 1062.85C197.14 1062.68 197.06 1062.5 196.98 1062.33L191.68 1065.55L192.12 1065.85Z" fill="#C1D353"/>
<path d="M188 1060L192.17 1057.16L191.73 1056.79L187.78 1059.53L188 1060Z" fill="#C1D353"/>
<path d="M195.71 1066.82C195.992 1066.73 196.253 1066.58 196.48 1066.39C196.803 1066.12 197.06 1065.78 197.23 1065.39L194.6 1066.9C194.971 1066.96 195.351 1066.93 195.71 1066.82Z" fill="#C1D353"/>
<path d="M189.75 1063.65L190.05 1063.99L195.71 1060.44C195.59 1060.3 195.47 1060.16 195.33 1060.02L189.71 1063.6L189.75 1063.65Z" fill="#C1D353"/>
<path d="M188.28 1060.82L192.87 1057.74L192.43 1057.37L188.1 1060.32C188.17 1060.51 188.22 1060.66 188.28 1060.82Z" fill="#C1D353"/>
<path d="M188.62 1061.72L193.62 1058.42L193.19 1058.05L188.43 1061.24C188.49 1061.41 188.55 1061.57 188.62 1061.72Z" fill="#C1D353"/>
<path d="M190.67 1064.64L196.3 1061.18C196.2 1061.04 196.09 1060.89 195.96 1060.74L190.31 1064.27L190.67 1064.64Z" fill="#C1D353"/>
<path d="M189 1062.54L194.35 1059.07L193.92 1058.69L188.77 1062.08C188.85 1062.25 188.92 1062.4 189 1062.54Z" fill="#C1D353"/>
<path d="M187.56 1059.18L191.39 1056.52L190.85 1056.05L187.19 1058.69C187.326 1058.84 187.45 1059.01 187.56 1059.18Z" fill="#C1D353"/>
<path d="M191.36 1065.27L196.8 1061.97C196.71 1061.81 196.62 1061.65 196.52 1061.5L190.96 1064.92L191.36 1065.27Z" fill="#C1D353"/>
<path d="M194 1066.8L197.38 1064.86C197.42 1064.64 197.44 1064.42 197.44 1064.2L193.37 1066.57C193.574 1066.66 193.785 1066.74 194 1066.8Z" fill="#C1D353"/>
<path d="M189.48 1063.29L195.06 1059.73L194.65 1059.34L189.2 1062.87C189.285 1063.02 189.379 1063.16 189.48 1063.29Z" fill="#C1D353"/>
<path d="M164.23 1453.19C164.047 1453.42 163.819 1453.62 163.56 1453.76C163.147 1453.99 162.697 1454.15 162.23 1454.23L164.59 1452.29C164.564 1452.62 164.438 1452.93 164.23 1453.19Z" fill="#C1D353"/>
<path d="M167.86 1447.5C167.633 1447.67 167.457 1447.9 167.349 1448.16C167.242 1448.42 167.208 1448.71 167.25 1448.99L168.75 1447.07C168.422 1447.14 168.116 1447.28 167.86 1447.5Z" fill="#C1D353"/>
<path d="M168.46 1449V1449.14C168.488 1449.22 168.525 1449.3 168.57 1449.37L167.87 1450.25C167.99 1450.36 168.12 1450.46 168.28 1450.58L168.94 1449.75H169.01L169.21 1449.88H169.27L168.6 1450.71L169.05 1450.99L169.74 1450.14L169.87 1450.21L170.02 1450.29H170.1L169.39 1451.15L169.85 1451.4L170.58 1450.54L170.93 1450.72L170.21 1451.59L170.71 1451.86L173.52 1448.47L173.03 1448.21L172.34 1449.03L172 1448.83L172.68 1448.01L172.19 1447.74L171.51 1448.56H171.45C171.379 1448.52 171.306 1448.49 171.23 1448.46H171.15L171.82 1447.64C171.64 1447.55 171.47 1447.48 171.29 1447.41L170.62 1448.25H170.56L170.32 1448.18H170.21L170.9 1447.32C170.71 1447.26 170.52 1447.2 170.33 1447.16L169.61 1448.06H169.11L169.89 1447.06C169.67 1447.04 169.45 1447.04 169.23 1447.06L167.32 1449.5C167.392 1449.65 167.476 1449.8 167.57 1449.94L168.46 1449Z" fill="#C1D353"/>
<path d="M180.25 1459.53L184 1456C183.931 1455.82 183.85 1455.64 183.76 1455.47L179.65 1459.33C179.88 1459.43 180.06 1459.48 180.25 1459.53Z" fill="#C1D353"/>
<path d="M179.29 1459.21L183.6 1455.21C183.506 1455.05 183.399 1454.9 183.28 1454.76L178.79 1459.03C179 1459.07 179.13 1459.14 179.29 1459.21Z" fill="#C1D353"/>
<path d="M174 1454.38L177.46 1450.71L176.95 1450.44L173.68 1453.96C173.794 1454.09 173.901 1454.23 174 1454.38Z" fill="#C1D353"/>
<path d="M183 1459.38C183.252 1459.23 183.473 1459.03 183.65 1458.8C183.908 1458.47 184.089 1458.08 184.18 1457.67L181.94 1459.67C182.31 1459.65 182.672 1459.55 183 1459.38Z" fill="#C1D353"/>
<path d="M176.51 1457.57L176.87 1457.83L181.64 1453.15L181.18 1452.82L176.46 1457.53L176.51 1457.57Z" fill="#C1D353"/>
<path d="M174.46 1455.12L178.28 1451.12L177.77 1450.85L174.18 1454.66C174.29 1454.84 174.37 1455 174.46 1455.12Z" fill="#C1D353"/>
<path d="M175 1455.93L179.18 1451.63L178.68 1451.36L174.68 1455.49C174.79 1455.65 174.89 1455.79 175 1455.93Z" fill="#C1D353"/>
<path d="M177.62 1458.34L182.37 1453.75L181.95 1453.39L177.19 1458.06L177.62 1458.34Z" fill="#C1D353"/>
<path d="M175.53 1456.64L180.02 1452.1L179.51 1451.82L175.21 1456.25L175.53 1456.64Z" fill="#C1D353"/>
<path d="M173.4 1453.67L176.58 1450.25L175.95 1449.91L172.95 1453.27C173.109 1453.39 173.26 1453.53 173.4 1453.67Z" fill="#C1D353"/>
<path d="M178.42 1458.8L183.03 1454.41C182.91 1454.27 182.78 1454.14 182.65 1454.01L177.96 1458.55L178.42 1458.8Z" fill="#C1D353"/>
<path d="M181.36 1459.72L184.24 1457.1C184.238 1456.88 184.211 1456.66 184.16 1456.44L180.7 1459.64C180.918 1459.68 181.139 1459.71 181.36 1459.72Z" fill="#C1D353"/>
<path d="M176.16 1457.28L180.85 1452.6L180.36 1452.3L175.8 1456.93L176.16 1457.28Z" fill="#C1D353"/>
<path d="M268.56 1518L264.49 1521.28C264.28 1521.28 264.06 1521.17 263.85 1521.1L268.33 1517.54C268.415 1517.69 268.491 1517.84 268.56 1518Z" fill="#C1D353"/>
<path d="M268.14 1517.16L263.44 1520.9L262.88 1520.64L267.88 1516.75C268 1516.89 268.05 1517 268.14 1517.16Z" fill="#C1D353"/>
<path d="M262.18 1512.89L257.9 1515.89L257.56 1515.47L261.67 1512.63L262.18 1512.89Z" fill="#C1D353"/>
<path d="M268.46 1520.26C268.281 1520.49 268.052 1520.68 267.79 1520.82C267.38 1521.06 266.929 1521.22 266.46 1521.3L268.83 1519.36C268.796 1519.69 268.667 1520 268.46 1520.26Z" fill="#C1D353"/>
<path d="M266.08 1514.9C266.2 1514.99 266.3 1515.09 266.41 1515.18L260.96 1519.32L260.55 1518.95L266.03 1514.86C266.051 1514.87 266.068 1514.88 266.08 1514.9Z" fill="#C1D353"/>
<path d="M263.08 1513.26H263.13L258.48 1516.58L258.14 1516.17L262.59 1513.04L263.08 1513.26Z" fill="#C1D353"/>
<path d="M264.07 1513.68L259.07 1517.3L258.73 1516.89L263.55 1513.45L264.07 1513.68Z" fill="#C1D353"/>
<path d="M267 1515.8L261.66 1519.91C261.52 1519.81 261.37 1519.7 261.22 1519.57L266.65 1515.45L267 1515.8Z" fill="#C1D353"/>
<path d="M264.94 1514.11L259.66 1518L259.3 1517.59L264.46 1513.86L264.94 1514.11Z" fill="#C1D353"/>
<path d="M267.62 1516.45L262.52 1520.45L262.03 1520.15L267.3 1516.09L267.62 1516.45Z" fill="#C1D353"/>
<path d="M268.82 1518.88L265.82 1521.36C265.554 1521.38 265.286 1521.38 265.02 1521.36L268.74 1518.36C268.782 1518.53 268.809 1518.7 268.82 1518.88Z" fill="#C1D353"/>
<path d="M265.72 1514.61L260.28 1518.68L259.91 1518.28L265.29 1514.28C265.45 1514.42 265.59 1514.51 265.72 1514.61Z" fill="#C1D353"/>
<path d="M272.09 1514.57C271.863 1514.74 271.687 1514.96 271.579 1515.23C271.472 1515.49 271.437 1515.77 271.48 1516.05L272.98 1514.14C272.652 1514.21 272.346 1514.36 272.09 1514.57Z" fill="#C1D353"/>
<path d="M272.69 1516L272.74 1516.14L272.85 1516.36L272.15 1517.24L272.56 1517.57L273.23 1516.74H273.3L273.49 1516.87H273.56L272.88 1517.7L273.33 1517.98L274.02 1517.13L274.15 1517.2L274.3 1517.28H274.38L273.67 1518.14L274.14 1518.39L274.86 1517.53L275.22 1517.71L274.49 1518.58L274.99 1518.85L277.8 1515.46L277.31 1515.19L276.63 1516.02L276.28 1515.82L276.97 1515L276.47 1514.73L275.8 1515.55H275.73L275.51 1515.44H275.43L276.1 1514.61C275.93 1514.53 275.75 1514.45 275.58 1514.39L274.9 1515.22H274.84L274.6 1515.15H274.5L275.19 1514.29C274.99 1514.23 274.8 1514.17 274.61 1514.13L273.89 1515.03H273.39L274.17 1514.03C273.951 1514.01 273.73 1514.01 273.51 1514.03L271.6 1516.47C271.674 1516.62 271.758 1516.77 271.85 1516.91L272.69 1516Z" fill="#C1D353"/>
<path d="M284.48 1526.6L288.27 1523.1C288.206 1522.92 288.129 1522.74 288.04 1522.57L283.92 1526.43L284.48 1526.6Z" fill="#C1D353"/>
<path d="M283.52 1526.27L287.84 1522.27C287.74 1522.12 287.63 1521.96 287.52 1521.82L283.02 1526.09C283.19 1526.13 283.36 1526.21 283.52 1526.27Z" fill="#C1D353"/>
<path d="M278.21 1521.45L281.67 1517.77L281.16 1517.51L277.9 1521C278 1521.15 278.1 1521.29 278.21 1521.45Z" fill="#C1D353"/>
<path d="M287.24 1526.45C287.491 1526.3 287.714 1526.1 287.9 1525.87C288.155 1525.54 288.333 1525.15 288.42 1524.74L286.18 1526.74C286.549 1526.72 286.91 1526.62 287.24 1526.45Z" fill="#C1D353"/>
<path d="M280.74 1524.64L281.1 1524.9L285.87 1520.21L285.41 1519.89L280.69 1524.59C280.69 1524.59 280.73 1524.62 280.74 1524.64Z" fill="#C1D353"/>
<path d="M278.69 1522.18L282.51 1518.18L282.01 1517.91L278.41 1521.73L278.69 1522.18Z" fill="#C1D353"/>
<path d="M279.22 1523L283.39 1518.71L282.89 1518.43L278.89 1522.57C279 1522.72 279.12 1522.86 279.22 1523Z" fill="#C1D353"/>
<path d="M281.85 1525.41L286.61 1520.81L286.18 1520.45L281.42 1525.12L281.85 1525.41Z" fill="#C1D353"/>
<path d="M279.77 1523.71L284.25 1519.17L283.75 1518.89L279.45 1523.31C279.549 1523.45 279.656 1523.58 279.77 1523.71Z" fill="#C1D353"/>
<path d="M277.63 1520.74L280.81 1517.32L280.18 1516.98L277.18 1520.34C277.337 1520.47 277.488 1520.6 277.63 1520.74Z" fill="#C1D353"/>
<path d="M282.66 1525.87L287.27 1521.48L286.89 1521.08L282.19 1525.61L282.66 1525.87Z" fill="#C1D353"/>
<path d="M285.6 1526.79L288.47 1524.17C288.471 1523.95 288.448 1523.73 288.4 1523.51L284.93 1526.71C285.151 1526.75 285.375 1526.78 285.6 1526.79Z" fill="#C1D353"/>
<path d="M280.39 1524.34L285.08 1519.67L284.6 1519.37L280 1524L280.39 1524.34Z" fill="#C1D353"/>
<path d="M253.34 1123.25C253.618 1123.1 253.926 1123 254.242 1122.97C254.559 1122.94 254.878 1122.98 255.18 1123.08L252.7 1123.88C252.846 1123.61 253.069 1123.39 253.34 1123.25Z" fill="#C1D353"/>
<path d="M255 1124.07L255.16 1124.14C255.247 1124.18 255.33 1124.23 255.41 1124.28L256.55 1123.9C256.65 1124.02 256.76 1124.15 256.87 1124.31L255.81 1124.67V1124.74L255.93 1124.93V1124.99L257.01 1124.63L257.27 1125.05L256.17 1125.43L256.23 1125.56C256.259 1125.6 256.283 1125.65 256.3 1125.7V1125.77L257.41 1125.38C257.49 1125.53 257.57 1125.67 257.64 1125.82L256.52 1126.22L256.69 1126.55L257.82 1126.15L258.06 1126.62L253.65 1128.17L253.42 1127.71L254.49 1127.33L254.31 1127L253.24 1127.38C253.16 1127.23 253.08 1127.08 253 1126.91L254.06 1126.54V1126.48C254.024 1126.42 253.994 1126.35 253.97 1126.28V1126.2L252.9 1126.57C252.83 1126.41 252.77 1126.24 252.71 1126.09L253.8 1125.72V1125.66C253.777 1125.59 253.761 1125.52 253.75 1125.45V1125.36L252.65 1125.73C252.604 1125.56 252.567 1125.39 252.54 1125.22L253.7 1124.84C253.69 1124.76 253.69 1124.68 253.7 1124.6V1124.46L252.42 1124.89C252.415 1124.7 252.432 1124.51 252.47 1124.33L255.62 1123.33L256.1 1123.63H256.15L255 1124.07Z" fill="#C1D353"/>
<path d="M265.67 1136.14L260.99 1138.47C260.788 1138.38 260.591 1138.27 260.4 1138.16L265.54 1135.65C265.59 1135.81 265.63 1136 265.67 1136.14Z" fill="#C1D353"/>
<path d="M265.42 1135.28L260.03 1137.92L259.54 1137.55L265.24 1134.82C265.31 1135 265.37 1135.14 265.42 1135.28Z" fill="#C1D353"/>
<path d="M260.53 1129.83L255.7 1131.83L255.46 1131.36L260.08 1129.47L260.53 1129.83Z" fill="#C1D353"/>
<path d="M265.08 1138.38C264.846 1138.56 264.582 1138.7 264.3 1138.79C263.843 1138.93 263.366 1138.99 262.89 1138.96L265.62 1137.58C265.517 1137.89 265.33 1138.17 265.08 1138.38Z" fill="#C1D353"/>
<path d="M263.9 1132.63C263.99 1132.75 264.08 1132.86 264.16 1132.98L257.95 1135.85L257.63 1135.4L263.86 1132.58C263.878 1132.59 263.892 1132.61 263.9 1132.63Z" fill="#C1D353"/>
<path d="M261.32 1130.39H261.37L256.11 1132.63L255.87 1132.15L260.87 1130.06L261.32 1130.39Z" fill="#C1D353"/>
<path d="M262.2 1131L256.53 1133.47C256.45 1133.31 256.37 1133.15 256.28 1132.99L261.73 1130.67L262.2 1131Z" fill="#C1D353"/>
<path d="M264.65 1133.71L258.55 1136.59L258.18 1136.15L264.38 1133.3L264.65 1133.71Z" fill="#C1D353"/>
<path d="M263 1131.62L257 1134.28L256.74 1133.8L262.58 1131.27C262.726 1131.38 262.866 1131.5 263 1131.62Z" fill="#C1D353"/>
<path d="M259.78 1129.19L255.29 1131.03L254.98 1130.44L259.38 1128.73C259.499 1128.9 259.633 1129.05 259.78 1129.19Z" fill="#C1D353"/>
<path d="M265.07 1134.48L259.23 1137.28C259.08 1137.15 258.95 1137.01 258.81 1136.88L264.81 1134.04L265.07 1134.48Z" fill="#C1D353"/>
<path d="M265.72 1137.1L262.22 1138.88C261.958 1138.83 261.701 1138.76 261.45 1138.67L265.72 1136.54C265.74 1136.73 265.74 1136.91 265.72 1137.1Z" fill="#C1D353"/>
<path d="M263.61 1132.28L257.42 1135.08L257.15 1134.61L263.26 1131.9C263.38 1132 263.5 1132.15 263.61 1132.28Z" fill="#C1D353"/>
<path d="M269.84 1133.6C269.583 1133.72 269.363 1133.9 269.202 1134.13C269.042 1134.37 268.948 1134.64 268.93 1134.92L270.8 1133.37C270.466 1133.36 270.136 1133.44 269.84 1133.6Z" fill="#C1D353"/>
<path d="M270.12 1135.14V1135.29C270.12 1135.37 270.12 1135.45 270.17 1135.54L269.3 1136.24C269.396 1136.38 269.503 1136.52 269.62 1136.65L270.45 1135.99L270.51 1136.05L270.67 1136.22H270.73L269.89 1136.89C270 1137.01 270.13 1137.13 270.27 1137.26L271.13 1136.58L271.24 1136.67C271.279 1136.71 271.322 1136.75 271.37 1136.78L271.43 1136.84L270.56 1137.52C270.69 1137.64 270.82 1137.76 270.96 1137.87L271.85 1137.18L272.16 1137.44L271.26 1138.13L271.69 1138.5L275.17 1135.8L274.75 1135.43L273.9 1136.09L273.6 1135.82L274.45 1135.17L274.02 1134.8L273.19 1135.45H273.13L272.94 1135.3H272.87L273.7 1134.64L273.24 1134.3L272.4 1134.97H272.34L272.13 1134.85L272.03 1134.79L272.89 1134.11C272.71 1134 272.53 1133.91 272.36 1133.82L271.47 1134.55H271.42L271.15 1134.49H270.97L271.97 1133.7C271.764 1133.61 271.549 1133.55 271.33 1133.51L268.95 1135.51C268.984 1135.68 269.031 1135.84 269.09 1136L270.12 1135.14Z" fill="#C1D353"/>
<path d="M279.35 1148L283.81 1145.39C283.783 1145.2 283.743 1145.01 283.69 1144.82L278.85 1147.71L279.35 1148Z" fill="#C1D353"/>
<path d="M278.49 1147.49L283.57 1144.49C283.51 1144.32 283.44 1144.15 283.36 1143.98L278.05 1147.19L278.49 1147.49Z" fill="#C1D353"/>
<path d="M274.34 1141.63L278.51 1138.79L278.07 1138.42L274.12 1141.16C274.203 1141.31 274.277 1141.47 274.34 1141.63Z" fill="#C1D353"/>
<path d="M282.09 1148.46C282.369 1148.37 282.628 1148.22 282.85 1148.03C283.173 1147.76 283.429 1147.42 283.6 1147.03L280.98 1148.54C281.351 1148.6 281.73 1148.57 282.09 1148.46Z" fill="#C1D353"/>
<path d="M276.13 1145.29C276.22 1145.41 276.32 1145.52 276.42 1145.63L282.09 1142.08L281.71 1141.66L276.09 1145.24L276.13 1145.29Z" fill="#C1D353"/>
<path d="M274.65 1142.46L279.24 1139.38L278.8 1139.01L274.47 1142.01C274.54 1142.15 274.59 1142.3 274.65 1142.46Z" fill="#C1D353"/>
<path d="M275 1143.36L280 1140.06L279.57 1139.69L274.81 1142.88C274.86 1143.05 274.93 1143.21 275 1143.36Z" fill="#C1D353"/>
<path d="M277 1146.28L282.63 1142.82L282.3 1142.38L276.64 1145.92L277 1146.28Z" fill="#C1D353"/>
<path d="M275.37 1144.18L280.73 1140.71L280.3 1140.33L275.15 1143.72C275.22 1143.89 275.3 1144 275.37 1144.18Z" fill="#C1D353"/>
<path d="M273.93 1140.82L277.77 1138.16C277.58 1138 277.4 1137.85 277.23 1137.69L273.57 1140.33C273.69 1140.48 273.81 1140.64 273.93 1140.82Z" fill="#C1D353"/>
<path d="M277.73 1146.91L283.18 1143.61C283.09 1143.45 282.99 1143.29 282.89 1143.14L277.33 1146.56L277.73 1146.91Z" fill="#C1D353"/>
<path d="M280.4 1148.44L283.78 1146.5C283.825 1146.28 283.845 1146.06 283.84 1145.84L279.77 1148.22C280 1148.31 280.2 1148.38 280.4 1148.44Z" fill="#C1D353"/>
<path d="M275.85 1144.93L281.43 1141.37L281 1141L275.55 1144.53C275.642 1144.67 275.743 1144.8 275.85 1144.93Z" fill="#C1D353"/>
<path d="M299.72 367.41C318.531 367.41 333.78 363.814 333.78 359.38C333.78 354.945 318.531 351.35 299.72 351.35C280.909 351.35 265.66 354.945 265.66 359.38C265.66 363.814 280.909 367.41 299.72 367.41Z" fill="#C1D353"/>
</g>
</g>
<defs>
<clipPath id="clip0_1232_20548">
<rect width="402" height="1897" fill="white"/>
</clipPath>
</defs>
</svg>
