<svg width="51" height="51" viewBox="0 0 51 51" fill="none" xmlns="http://www.w3.org/2000/svg">
<path opacity="0.75" d="M15.4025 0.621094C7.36292 0.621094 0.823242 7.16683 0.823242 15.2085V36.0418C0.823242 44.0814 7.36898 50.6211 15.4106 50.6211H36.244C44.2836 50.6211 50.8232 44.0754 50.8232 36.0337V15.2004C50.8232 7.16077 44.2775 0.621094 36.2358 0.621094H15.4025ZM40.4066 8.95443C41.5566 8.95443 42.4899 9.88776 42.4899 11.0378C42.4899 12.1878 41.5566 13.1211 40.4066 13.1211C39.2566 13.1211 38.3232 12.1878 38.3232 11.0378C38.3232 9.88776 39.2566 8.95443 40.4066 8.95443ZM25.8232 13.1211C32.717 13.1211 38.3232 18.7273 38.3232 25.6211C38.3232 32.5148 32.717 38.1211 25.8232 38.1211C18.9295 38.1211 13.3232 32.5148 13.3232 25.6211C13.3232 18.7273 18.9295 13.1211 25.8232 13.1211ZM25.8232 17.2878C23.6131 17.2878 21.4935 18.1657 19.9307 19.7285C18.3679 21.2913 17.4899 23.411 17.4899 25.6211C17.4899 27.8312 18.3679 29.9508 19.9307 31.5136C21.4935 33.0765 23.6131 33.9544 25.8232 33.9544C28.0334 33.9544 30.153 33.0765 31.7158 31.5136C33.2786 29.9508 34.1566 27.8312 34.1566 25.6211C34.1566 23.411 33.2786 21.2913 31.7158 19.7285C30.153 18.1657 28.0334 17.2878 25.8232 17.2878Z" fill="#F283C7"/>
</svg>
