<svg width="23" height="22" viewBox="0 0 23 22" fill="none" xmlns="http://www.w3.org/2000/svg">
<g clip-path="url(#clip0_417_58503)">
<path d="M22.8229 6.41692V8.25025C22.8229 8.49337 22.7263 8.72653 22.5544 8.89844C22.3825 9.07034 22.1493 9.16692 21.9062 9.16692C21.6631 9.16692 21.4299 9.07034 21.258 8.89844C21.0861 8.72653 20.9895 8.49337 20.9895 8.25025V6.41692C20.9895 5.93069 20.7964 5.46438 20.4526 5.12056C20.1087 4.77674 19.6424 4.58359 19.1562 4.58359H17.3229L18.4687 5.78442C18.6394 5.95617 18.7353 6.1885 18.7353 6.43067C18.7353 6.67284 18.6394 6.90517 18.4687 7.07692C18.378 7.16475 18.2701 7.23289 18.1517 7.27705C18.0334 7.32122 17.9073 7.34047 17.7812 7.33359C17.6577 7.33312 17.5356 7.3077 17.4222 7.25887C17.3088 7.21004 17.2064 7.1388 17.1212 7.04942L15.0954 4.94109C14.7594 4.59838 14.5713 4.13763 14.5713 3.65775C14.5713 3.17787 14.7594 2.71712 15.0954 2.37442L17.1212 0.284421C17.2015 0.187153 17.3009 0.107492 17.4134 0.0504204C17.5258 -0.00665158 17.6488 -0.039907 17.7747 -0.0472659C17.9006 -0.0546249 18.0267 -0.0359292 18.145 0.00765203C18.2634 0.0512332 18.3714 0.118762 18.4625 0.206016C18.5535 0.29327 18.6256 0.398371 18.6742 0.514747C18.7227 0.631122 18.7468 0.756269 18.7448 0.88236C18.7428 1.00845 18.7148 1.13277 18.6626 1.24755C18.6103 1.36233 18.535 1.4651 18.4412 1.54942L17.3229 2.75025H19.1562C20.1287 2.75025 21.0613 3.13656 21.7489 3.8242C22.4366 4.51183 22.8229 5.44446 22.8229 6.41692Z" fill="#30688E"/>
<path d="M6.52491 14.9515C6.35289 14.7968 6.12874 14.7128 5.89742 14.7165C5.66611 14.7202 5.44473 14.8112 5.2777 14.9712C5.11067 15.1313 5.01034 15.3486 4.99684 15.5796C4.98334 15.8105 5.05767 16.038 5.20491 16.2165L6.32324 17.4173H4.48991C4.00368 17.4173 3.53736 17.2242 3.19355 16.8803C2.84973 16.5365 2.65658 16.0702 2.65658 15.584V13.7507C2.65658 13.5075 2.56 13.2744 2.38809 13.1025C2.21618 12.9306 1.98302 12.834 1.73991 12.834C1.49679 12.834 1.26364 12.9306 1.09173 13.1025C0.919819 13.2744 0.823242 13.5075 0.823242 13.7507L0.823242 15.584C0.823242 16.5564 1.20955 17.4891 1.89718 18.1767C2.58482 18.8643 3.51745 19.2507 4.48991 19.2507H6.32324L5.20491 20.4515C5.03418 20.6232 4.93835 20.8556 4.93835 21.0977C4.93835 21.3399 5.03418 21.5722 5.20491 21.744C5.2924 21.8284 5.39581 21.8946 5.50912 21.9386C5.62243 21.9827 5.74337 22.0038 5.86491 22.0007C5.98839 22.0002 6.1105 21.9748 6.22391 21.9259C6.33733 21.8771 6.43971 21.8059 6.52491 21.7165L8.54158 19.6265C8.87749 19.2838 9.06565 18.823 9.06565 18.3432C9.06565 17.8633 8.87749 17.4025 8.54158 17.0598L6.52491 14.9515Z" fill="#30688E"/>
<path d="M8.15658 0H4.48991C2.46486 0 0.823242 1.64162 0.823242 3.66667V7.33333C0.823242 9.35838 2.46486 11 4.48991 11H8.15658C10.1816 11 11.8232 9.35838 11.8232 7.33333V3.66667C11.8232 1.64162 10.1816 0 8.15658 0Z" fill="#30688E"/>
<path d="M19.1566 11H15.4899C13.4649 11 11.8232 12.6416 11.8232 14.6667V18.3333C11.8232 20.3584 13.4649 22 15.4899 22H19.1566C21.1816 22 22.8232 20.3584 22.8232 18.3333V14.6667C22.8232 12.6416 21.1816 11 19.1566 11Z" fill="#30688E"/>
<path d="M3.84852 8.84603C3.7938 8.84287 3.74055 8.82718 3.69286 8.80015C3.64518 8.77313 3.60435 8.73551 3.57352 8.69019C3.53409 8.64416 3.5081 8.58816 3.4984 8.52833C3.48869 8.4685 3.49566 8.40716 3.51852 8.35103L5.35185 2.64936C5.39833 2.50399 5.49185 2.37822 5.61769 2.29186C5.73571 2.20075 5.8811 2.15229 6.03019 2.15436H6.63519C6.7897 2.15366 6.94048 2.20178 7.06602 2.29186C7.18944 2.37868 7.27989 2.50466 7.32269 2.64936L9.15602 8.35103C9.17332 8.40982 9.1748 8.47214 9.16032 8.53169C9.14583 8.59124 9.11589 8.64592 9.07352 8.69019C9.03748 8.73885 8.99048 8.77831 8.93633 8.80539C8.88217 8.83247 8.8224 8.84639 8.76185 8.84603H8.15685C8.00601 8.84947 7.85917 8.79726 7.74435 8.69936C7.62619 8.61112 7.54202 8.48488 7.50602 8.34186L7.28602 7.47103C7.28591 7.45576 7.28157 7.44082 7.27348 7.42787C7.26539 7.41493 7.25386 7.40448 7.24019 7.39769H5.40685C5.38541 7.39726 5.36449 7.40436 5.34774 7.41776C5.33099 7.43116 5.31947 7.45001 5.31519 7.47103L5.09519 8.34186C5.05919 8.48488 4.97502 8.61112 4.85685 8.69936C4.74204 8.79726 4.5952 8.84947 4.44435 8.84603H3.84852ZM5.62685 6.14186C5.62278 6.15045 5.62066 6.15985 5.62066 6.16936C5.62066 6.17887 5.62278 6.18827 5.62685 6.19686H5.68185H6.91935C6.91935 6.19686 6.91935 6.19686 6.91935 6.14186L6.32352 3.51103L5.62685 6.14186Z" fill="#1CB0F6"/>
<path d="M15.2149 19.9466C15.1555 19.9478 15.0967 19.9342 15.0439 19.907C14.9911 19.8798 14.9459 19.8398 14.9124 19.7908C14.8834 19.7406 14.8682 19.6837 14.8682 19.6258C14.8682 19.5678 14.8834 19.5109 14.9124 19.4608L15.4349 18.0674C15.5179 17.8246 15.6319 17.5936 15.774 17.3799C15.8813 17.2169 16.0258 17.0818 16.1957 16.9858C15.8251 16.8546 15.5046 16.6111 15.279 16.2891C15.0424 15.9681 14.9169 15.5787 14.9215 15.1799C14.9077 14.8988 14.9622 14.6186 15.0803 14.3632C15.1985 14.1077 15.3767 13.8847 15.5999 13.7133C16.206 13.3207 16.9239 13.1372 17.644 13.1908C18.2042 13.1899 18.7641 13.2174 19.3215 13.2733C19.4661 13.2825 19.6011 13.3484 19.6974 13.4566C19.7966 13.5634 19.8493 13.7051 19.844 13.8508V19.4516C19.8417 19.5894 19.7859 19.721 19.6884 19.8184C19.5909 19.9159 19.4594 19.9717 19.3215 19.9741H18.7899C18.7213 19.9749 18.6533 19.9615 18.5902 19.9347C18.5271 19.9079 18.4702 19.8682 18.4232 19.8183C18.3741 19.7706 18.335 19.7136 18.3083 19.6507C18.2815 19.5877 18.2676 19.52 18.2674 19.4516V17.6183C18.2674 17.5633 18.2674 17.5358 18.194 17.5358H17.809C17.6097 17.5183 17.4101 17.5666 17.2407 17.6733C17.0881 17.8133 16.9798 17.9949 16.929 18.1958L16.4707 19.5158C16.4173 19.66 16.3214 19.7846 16.1957 19.8733C16.0736 19.9632 15.9257 20.0114 15.774 20.0108L15.2149 19.9466ZM17.6899 14.3458C17.3671 14.3288 17.0469 14.412 16.7732 14.5841C16.6692 14.6703 16.5874 14.7803 16.5348 14.9047C16.4821 15.0291 16.4602 15.1644 16.4707 15.2991C16.4631 15.4437 16.4899 15.588 16.5489 15.7203C16.6078 15.8525 16.6973 15.9689 16.8099 16.0599C17.0982 16.255 17.4433 16.3485 17.7907 16.3258H18.2399C18.2857 16.3258 18.3132 16.3258 18.3132 16.2433V14.4833C18.3145 14.4712 18.3133 14.459 18.3099 14.4474C18.3064 14.4358 18.3007 14.425 18.293 14.4156C18.2853 14.4063 18.2759 14.3985 18.2652 14.3928C18.2545 14.3871 18.2428 14.3836 18.2307 14.3824C18.0522 14.3513 17.8709 14.3391 17.6899 14.3458Z" fill="#1CB0F6"/>
</g>
<defs>
<clipPath id="clip0_417_58503">
<rect width="22" height="22" fill="white" transform="translate(0.823242)"/>
</clipPath>
</defs>
</svg>
