<svg width="186" height="127" viewBox="0 0 186 127" fill="none" xmlns="http://www.w3.org/2000/svg">
<mask id="mask0_1232_21041" style="mask-type:luminance" maskUnits="userSpaceOnUse" x="-16" y="-566" width="403" height="1486">
<path d="M386.824 -566H-15.1758V919.7H386.824V-566Z" fill="white"/>
</mask>
<g mask="url(#mask0_1232_21041)">
<path d="M91.6639 126.32C135.19 126.32 170.474 118.006 170.474 107.75C170.474 97.4937 135.19 89.1797 91.6639 89.1797C48.1386 89.1797 12.8541 97.4937 12.8541 107.75C12.8541 118.006 48.1386 126.32 91.6639 126.32Z" fill="#C1D353"/>
<path d="M38.2341 106.699C38.2341 106.699 44.7441 107.389 46.5341 103.839C46.5341 103.839 47.3641 100.729 38.2341 100.319C38.2341 100.319 30.8941 100.139 30.6641 102.939C30.3341 106.849 38.2341 106.699 38.2341 106.699Z" fill="#9EC92B"/>
<path d="M35.2442 94.9989C35.2442 94.9989 32.5342 90.8389 30.0542 91.6389C27.5742 92.4389 29.6842 99.2389 32.3142 102.089C34.9442 104.939 42.7742 104.509 44.3842 102.089C44.3842 102.089 48.2342 97.1989 48.2542 93.5389C48.2742 89.8789 43.1242 93.2489 41.8242 95.0789C41.8242 95.0789 42.8942 86.3789 38.7042 86.3789C34.5142 86.3789 35.2442 94.9989 35.2442 94.9989Z" fill="#F9CC10"/>
<path d="M58.7341 122.49C58.7341 122.49 67.0841 123.38 69.3841 118.81C69.3841 118.81 70.4641 114.81 58.7341 114.29C58.7341 114.29 49.2941 114.07 48.9941 117.66C48.5741 122.69 58.7341 122.49 58.7341 122.49Z" fill="#9EC92B"/>
<path d="M55.8242 108.86C55.8242 108.86 52.5942 103.86 49.6242 104.86C46.6542 105.86 49.1842 113.96 52.3342 117.37C55.4842 120.78 64.8342 120.25 66.7642 117.37C66.7642 117.37 71.3742 111.51 71.3942 107.14C71.4142 102.77 65.2542 106.79 63.6942 108.97C63.6942 108.97 64.9842 98.5703 59.9742 98.5703C54.9642 98.5703 55.8242 108.86 55.8242 108.86Z" fill="#41AA72"/>
<path d="M112.074 120.23C112.074 120.23 118.584 120.91 120.374 117.36C120.374 117.36 121.204 114.26 112.074 113.84C112.074 113.84 104.734 113.67 104.494 116.47C104.174 120.38 112.074 120.23 112.074 120.23Z" fill="#9EC92B"/>
<path d="M110.014 110.15C110.014 110.15 107.714 106.61 105.604 107.3C103.494 107.99 105.294 113.75 107.534 116.17C109.774 118.59 116.404 118.22 117.774 116.17C117.774 116.17 121.044 112.01 121.064 108.91C121.084 105.81 116.704 108.66 115.604 110.21C115.604 110.21 116.514 102.83 112.954 102.83C109.394 102.83 110.014 110.15 110.014 110.15Z" fill="#7ACD02"/>
<path d="M132.634 107.06C132.634 107.06 139.134 107.74 140.924 104.19C140.924 104.19 141.764 101.09 132.634 100.67C132.634 100.67 125.284 100.5 125.054 103.3C124.724 107.21 132.634 107.06 132.634 107.06Z" fill="#9EC92B"/>
<path d="M129.634 94.9989C129.634 94.9989 126.934 90.8389 124.444 91.6389C121.954 92.4389 124.074 99.2389 126.714 102.089C129.354 104.939 137.164 104.509 138.774 102.089C138.774 102.089 142.634 97.1989 142.644 93.5389C142.654 89.8789 137.514 93.2489 136.214 95.0789C136.214 95.0789 137.294 86.3789 133.094 86.3789C128.894 86.3789 129.634 94.9989 129.634 94.9989Z" fill="#FA780E"/>
<path d="M71.9841 107.75L77.2741 50.7305H82.8041L77.3941 107.75H71.9841Z" fill="#995817"/>
<path d="M75.2341 107.75H110.634L111.674 50.7305H80.6441L75.2341 107.75Z" fill="#EAAD30"/>
<path d="M111.134 73.0996H78.5043L77.9343 79.1996L111.134 76.1696V73.0996Z" fill="#C16B16"/>
<path d="M104.674 86.399C106.999 86.399 108.884 85.1991 108.884 83.7191C108.884 82.2391 106.999 81.0391 104.674 81.0391C102.349 81.0391 100.464 82.2391 100.464 83.7191C100.464 85.1991 102.349 86.399 104.674 86.399Z" fill="#D69513"/>
<path d="M83.8042 96.0787C86.129 96.0787 88.014 94.8787 88.014 93.3987C88.014 91.9187 86.129 90.7188 83.8042 90.7188C81.4791 90.7188 79.5942 91.9187 79.5942 93.3987C79.5942 94.8787 81.4791 96.0787 83.8042 96.0787Z" fill="#D69513"/>
<path d="M102.984 103.299C106.707 103.299 109.724 102.234 109.724 100.919C109.724 99.6051 106.707 98.5391 102.984 98.5391C99.262 98.5391 96.244 99.6051 96.244 100.919C96.244 102.234 99.262 103.299 102.984 103.299Z" fill="#D69513"/>
<path d="M-0.105767 14.7689C-0.0980671 14.3349 -0.00376706 13.9059 0.171633 13.5089C0.347133 13.1119 0.600233 12.754 0.916033 12.456C1.23173 12.158 1.60393 11.926 2.01063 11.773C2.41733 11.621 2.85033 11.5519 3.28423 11.5689C6.61423 11.5089 183.764 2.85897 183.764 2.85897C183.764 2.85897 185.564 2.40894 185.764 5.32894C185.904 7.62894 185.824 11.459 185.764 12.989C185.761 13.179 185.719 13.365 185.64 13.538C185.561 13.71 185.446 13.864 185.304 13.989L179.824 18.669C179.693 18.782 179.587 18.9219 179.514 19.0789C179.204 19.7389 178.514 21.5489 180.014 22.6389C181.514 23.7289 184.214 25.7489 185.354 26.6389C185.519 26.7719 185.65 26.9419 185.739 27.1339C185.827 27.3269 185.87 27.537 185.864 27.749V48.869C185.862 49.078 185.802 49.281 185.69 49.458C185.579 49.634 185.421 49.777 185.234 49.869C184.672 50.18 184.203 50.6369 183.876 51.1909C183.549 51.7449 183.377 52.3759 183.377 53.0189C183.377 53.6619 183.549 54.2929 183.876 54.8469C184.203 55.4009 184.672 55.858 185.234 56.169C185.614 56.379 185.854 56.539 185.854 57.059V71.539C185.826 72.009 185.62 72.45 185.279 72.773C184.937 73.096 184.485 73.277 184.014 73.279H1.43423C1.43423 73.279 -0.105767 73.179 -0.105767 71.119V54.999C-0.110167 54.68 -0.038067 54.3649 0.104233 54.0789L4.60423 49.789C4.93803 49.24 5.09933 48.603 5.06723 47.961C5.03513 47.319 4.81113 46.702 4.42423 46.189L0.174233 39.349C-0.0127673 38.995 -0.109067 38.5999 -0.105767 38.1989V14.7689Z" fill="#995817"/>
<path d="M-0.105875 11.9995C-0.0981749 11.5645 -0.00387502 11.1355 0.171425 10.7375C0.346725 10.3405 0.599625 9.9815 0.915325 9.6825C1.23093 9.3835 1.60303 9.15051 2.00973 8.99751C2.41653 8.84351 2.84972 8.77252 3.28412 8.78852C6.61412 8.78852 183.764 0.0795387 183.764 0.0795387C183.764 0.0795387 185.564 -0.370481 185.764 2.55952C185.904 4.85952 185.824 8.68852 185.764 10.2185C185.761 10.4085 185.719 10.5955 185.64 10.7675C185.561 10.9395 185.446 11.0935 185.304 11.2185L179.824 15.8795C179.697 15.9955 179.592 16.1345 179.514 16.2885C179.204 16.9585 178.514 18.7695 180.014 19.8595L185.354 23.8095C185.52 23.9415 185.652 24.1105 185.741 24.3035C185.829 24.4965 185.872 24.7075 185.864 24.9195V45.9995C185.865 46.2085 185.806 46.4135 185.695 46.5905C185.583 46.7675 185.423 46.9095 185.234 46.9995C184.668 47.3105 184.196 47.7695 183.871 48.3285C183.545 48.8865 183.377 49.5225 183.384 50.1695C183.378 50.8105 183.549 51.4425 183.877 51.9945C184.204 52.5455 184.678 52.9975 185.244 53.2995C185.624 53.5195 185.864 53.6795 185.864 54.1895V68.6695C185.836 69.1395 185.631 69.5815 185.289 69.9065C184.948 70.2315 184.495 70.4145 184.024 70.4195H1.43412C1.43412 70.4195 -0.105875 70.3195 -0.105875 68.2595V52.1585C-0.107675 51.8375 -0.0358758 51.5185 0.104124 51.2295L4.60412 46.9495C4.93752 46.3975 5.09843 45.7595 5.06643 45.1165C5.03433 44.4735 4.81063 43.8545 4.42413 43.3396L0.174126 36.5095C-0.0129742 36.1545 -0.109175 35.7595 -0.105875 35.3595V11.9995Z" fill="#EAAD30"/>
<path d="M8.1142 18.2196C9.8042 18.2196 11.1742 16.8496 11.1742 15.1596C11.1742 13.4696 9.8042 12.0996 8.1142 12.0996C6.4242 12.0996 5.0542 13.4696 5.0542 15.1596C5.0542 16.8496 6.4242 18.2196 8.1142 18.2196Z" fill="#995817"/>
<path d="M8.1142 65.7997C9.8042 65.7997 11.1742 64.4297 11.1742 62.7397C11.1742 61.0497 9.8042 59.6797 8.1142 59.6797C6.4242 59.6797 5.0542 61.0497 5.0542 62.7397C5.0542 64.4297 6.4242 65.7997 8.1142 65.7997Z" fill="#995817"/>
<path d="M178.924 65.7997C180.614 65.7997 181.984 64.4297 181.984 62.7397C181.984 61.0497 180.614 59.6797 178.924 59.6797C177.234 59.6797 175.864 61.0497 175.864 62.7397C175.864 64.4297 177.234 65.7997 178.924 65.7997Z" fill="#995817"/>
<path d="M178.924 11.0887C180.614 11.0887 181.984 9.71875 181.984 8.02875C181.984 6.33875 180.614 4.96875 178.924 4.96875C177.234 4.96875 175.864 6.33875 175.864 8.02875C175.864 9.71875 177.234 11.0887 178.924 11.0887Z" fill="#995817"/>
<path d="M178.714 33L159.444 33.25C157.154 33.25 157.044 35.9599 159.334 36.0999L178.834 37.33C179.274 37.395 179.723 37.294 180.093 37.046C180.463 36.799 180.727 36.422 180.834 35.99L180.974 34.77C180.902 34.239 180.625 33.757 180.203 33.426C179.781 33.096 179.247 32.943 178.714 33Z" fill="#D69513"/>
<path d="M173.154 17.8701L158.514 19.3501C158.337 19.3481 158.162 19.3822 157.998 19.4502C157.835 19.5182 157.688 19.6191 157.565 19.7461C157.442 19.8741 157.347 20.0251 157.286 20.1911C157.224 20.3571 157.197 20.5342 157.207 20.7102C157.217 20.8872 157.262 21.0602 157.342 21.2182C157.421 21.3762 157.532 21.5161 157.668 21.6301C157.803 21.7431 157.961 21.8281 158.131 21.8781C158.3 21.9281 158.479 21.9421 158.654 21.9201L173.574 21.7602C173.94 21.7662 174.293 21.6292 174.56 21.3792C174.827 21.1292 174.986 20.7861 175.004 20.4201V19.3101C174.98 19.0931 174.912 18.8831 174.805 18.6931C174.698 18.5031 174.554 18.3351 174.382 18.2011C174.21 18.0671 174.012 17.9691 173.802 17.9121C173.591 17.8551 173.371 17.8411 173.154 17.8701Z" fill="#D69513"/>
<path d="M174.574 46.3793L163.574 47.5593C162.274 47.6993 162.424 50.2093 163.744 50.2293L174.954 50.4293C175.266 50.3803 175.547 50.2093 175.734 49.9553C175.921 49.7003 176 49.3822 175.954 49.0692V47.9193C175.924 46.9993 175.284 46.2993 174.574 46.3793Z" fill="#D69513"/>
<path d="M11.1543 23.2501L32.4643 23.4801C35.0043 23.4801 35.1143 25.9701 32.5843 26.1001L11.0243 27.2301C9.88429 27.2901 8.89429 26.7301 8.79429 25.9901L8.64429 24.8701C8.64429 24.0001 9.82429 23.2401 11.1543 23.2501Z" fill="#D69513"/>
<path d="M9.56418 36.8591L28.6542 35.099C30.9242 34.899 31.2942 37.449 29.0442 37.829L9.87418 40.9991C9.45958 41.1171 9.01618 41.081 8.62628 40.897C8.23638 40.713 7.92648 40.3941 7.75418 39.9991L7.49418 38.839C7.39418 37.839 8.32418 36.9991 9.56418 36.8591Z" fill="#D69513"/>
<path d="M13.8842 50.3504L24.8842 51.5305C26.1942 51.6705 26.0342 54.1804 24.7242 54.2004L13.5042 54.4005C12.9142 54.4005 12.4542 53.8104 12.5042 53.0504V51.9005C12.5242 51.0005 13.1742 50.2804 13.8842 50.3504Z" fill="#D69513"/>
</g>
</svg>
