<svg width="186" height="211" viewBox="0 0 186 211" fill="none" xmlns="http://www.w3.org/2000/svg">
<g clip-path="url(#clip0_1232_20548)">
<mask id="mask0_1232_20548" style="mask-type:luminance" maskUnits="userSpaceOnUse" x="-172" y="-718" width="402" height="1897">
<path d="M230 -718H-172V1178.65H230V-718Z" fill="white"/>
</mask>
<g mask="url(#mask0_1232_20548)">
<path d="M186 0.599069C186 0.599069 82.81 -1.89095 33.87 25.2091C-8.35 48.5791 1.77001 89.9591 1.77001 89.9591C1.77001 89.9591 3.20998 133.799 80.61 122.869C133.31 115.419 126 125.449 121.99 134.479C119.14 140.909 111.99 150.479 108.89 156.809C103.63 167.569 100.83 184.939 110.08 195.049C135.08 222.349 186.15 205.379 186.15 205.379V161.319L186 0.599069Z" fill="#E0F187"/>
<path d="M186 0.598943C186 0.598943 95.9 -0.161057 50.09 21.5989C3.79999 43.5989 11.35 82.1589 11.35 82.1589C11.35 82.1589 16.1 114.489 86.76 108.929C143.54 104.469 131.11 131.019 124.04 141.619C118.04 150.619 117.55 152.049 115.89 158.429C113.89 165.919 113.78 178.269 120.8 186.429C129.29 196.299 144.23 195.369 158.91 194.429C168.213 193.845 177.385 191.94 186.15 188.769L186 178.999V0.598943Z" fill="#5BCEFE"/>
<path d="M62.11 88.7299C70.223 88.7299 76.8 85.806 76.8 82.2C76.8 78.594 70.223 75.6699 62.11 75.6699C53.997 75.6699 47.42 78.594 47.42 82.2C47.42 85.806 53.997 88.7299 62.11 88.7299Z" fill="#95E0FF"/>
<path d="M93.42 71.459C96.899 71.459 99.72 70.004 99.72 68.209C99.72 66.414 96.899 64.959 93.42 64.959C89.94 64.959 87.12 66.414 87.12 68.209C87.12 70.004 89.94 71.459 93.42 71.459Z" fill="#95E0FF"/>
<path d="M151.03 176.849C157.171 176.849 162.15 174.095 162.15 170.699C162.15 167.302 157.171 164.549 151.03 164.549C144.889 164.549 139.91 167.302 139.91 170.699C139.91 174.095 144.889 176.849 151.03 176.849Z" fill="#95E0FF"/>
</g>
</g>
<defs>
<clipPath id="clip0_1232_20548">
<rect width="402" height="1897" fill="white" transform="translate(-216 -686)"/>
</clipPath>
</defs>
</svg>
