<svg width="115" height="131" viewBox="0 0 115 131" fill="none" xmlns="http://www.w3.org/2000/svg">
<g clip-path="url(#clip0_1232_20548)">
<path d="M401.47 -1186.5V709.15H0.539795V-1186.5H401.47Z" stroke="black"/>
<path d="M401.47 -1186.5V709.15H0.539795V-1186.5H401.47Z" stroke="black" stroke-opacity="0.2"/>
<path d="M-1.21007 -0.650029C-1.21007 -0.650029 63.5599 -2.20996 94.2799 14.8C120.78 29.47 114.43 55.4499 114.43 55.4499C114.43 55.4499 113.53 82.96 64.9399 76.1C31.8599 71.42 36.4499 77.72 38.9399 83.39C40.7299 87.39 45.2199 93.39 47.1599 97.39C50.4599 104.15 51.7299 114.64 46.4099 121.39C33.7999 137.39 -2.82007 128.02 -2.82007 128.02L-1.34007 100.22L-1.21007 -0.650029Z" fill="#E0F187"/>
<path d="M-1.21006 -0.650284C-1.21006 -0.650284 55.3499 -1.1302 84.0999 12.5598C113.16 26.3898 108.41 50.5598 108.41 50.5598C108.41 50.5598 105.41 70.8497 61.0799 67.3697C25.4399 64.5597 33.2399 81.2297 37.6799 87.8797C41.4699 93.5597 41.7499 94.4297 42.7999 98.4397C44.0199 103.14 44.1199 110.89 39.7099 116.02C34.3899 122.21 25.0099 121.63 15.7899 121.02C9.95016 120.66 4.19219 119.46 -1.31006 117.47C-1.31006 115.47 -1.25006 113.36 -1.21006 111.31V-0.650284Z" fill="#5BCEFE"/>
<path d="M76.5298 54.6708C81.6219 54.6708 85.7498 52.8307 85.7498 50.5707C85.7498 48.3007 81.6219 46.4707 76.5298 46.4707C71.4378 46.4707 67.3098 48.3007 67.3098 50.5707C67.3098 52.8307 71.4378 54.6708 76.5298 54.6708Z" fill="#95E0FF"/>
<path d="M56.8799 43.83C59.0615 43.83 60.8299 42.92 60.8299 41.79C60.8299 40.66 59.0615 39.75 56.8799 39.75C54.6984 39.75 52.9299 40.66 52.9299 41.79C52.9299 42.92 54.6984 43.83 56.8799 43.83Z" fill="#95E0FF"/>
<path d="M20.71 109.98C24.5649 109.98 27.69 108.25 27.69 106.12C27.69 103.99 24.5649 102.26 20.71 102.26C16.855 102.26 13.73 103.99 13.73 106.12C13.73 108.25 16.855 109.98 20.71 109.98Z" fill="#95E0FF"/>
</g>
<defs>
<clipPath id="clip0_1232_20548">
<rect width="402" height="1897" fill="white" transform="translate(0 -1187)"/>
</clipPath>
</defs>
</svg>
