<svg width="25" height="25" viewBox="0 0 25 25" fill="none" xmlns="http://www.w3.org/2000/svg">
<g clip-path="url(#clip0_1850_14199)">
<path d="M12.8232 8.5C12.0321 8.5 11.2588 8.7346 10.601 9.17412C9.94317 9.61365 9.43048 10.2384 9.12773 10.9693C8.82498 11.7002 8.74576 12.5044 8.9001 13.2804C9.05444 14.0563 9.43541 14.769 9.99482 15.3284C10.5542 15.8878 11.267 16.2688 12.0429 16.4231C12.8188 16.5775 13.6231 16.4983 14.354 16.1955C15.0849 15.8928 15.7096 15.3801 16.1491 14.7223C16.5886 14.0645 16.8232 13.2911 16.8232 12.5C16.8232 11.4391 16.4018 10.4217 15.6517 9.67157C14.9015 8.92143 13.8841 8.5 12.8232 8.5ZM12.8232 14.5C12.4277 14.5 12.041 14.3827 11.7121 14.1629C11.3832 13.9432 11.1269 13.6308 10.9755 13.2654C10.8241 12.8999 10.7845 12.4978 10.8617 12.1098C10.9388 11.7219 11.1293 11.3655 11.409 11.0858C11.6887 10.8061 12.0451 10.6156 12.4331 10.5384C12.821 10.4613 13.2232 10.5009 13.5886 10.6522C13.9541 10.8036 14.2664 11.06 14.4862 11.3889C14.7059 11.7178 14.8232 12.1044 14.8232 12.5C14.8232 13.0304 14.6125 13.5391 14.2375 13.9142C13.8624 14.2893 13.3537 14.5 12.8232 14.5Z" fill="#30688E"/>
<path d="M22.117 14.4L21.673 14.144C21.8729 13.0564 21.8729 11.9416 21.673 10.854L22.117 10.598C22.4585 10.401 22.7578 10.1387 22.9978 9.82606C23.2379 9.51341 23.414 9.15654 23.5162 8.77582C23.6183 8.3951 23.6445 7.99799 23.5932 7.60716C23.5418 7.21633 23.414 6.83944 23.217 6.498C23.0201 6.15656 22.7578 5.85727 22.4451 5.6172C22.1325 5.37714 21.7756 5.20101 21.3949 5.09886C21.0141 4.99672 20.617 4.97056 20.2262 5.02189C19.8354 5.07321 19.4585 5.20102 19.117 5.398L18.672 5.655C17.8316 4.93692 16.8657 4.38025 15.823 4.013V3.5C15.823 2.70435 15.507 1.94129 14.9444 1.37868C14.3818 0.81607 13.6187 0.5 12.823 0.5C12.0274 0.5 11.2643 0.81607 10.7017 1.37868C10.1391 1.94129 9.82304 2.70435 9.82304 3.5V4.013C8.78043 4.38157 7.81489 4.9396 6.97504 5.659L6.52804 5.4C5.83848 5.00218 5.01912 4.89457 4.25022 5.10086C3.48132 5.30715 2.82587 5.81044 2.42804 6.5C2.03022 7.18956 1.92261 8.00892 2.1289 8.77782C2.33519 9.54672 2.83848 10.2022 3.52804 10.6L3.97204 10.856C3.77215 11.9436 3.77215 13.0584 3.97204 14.146L3.52804 14.402C2.83848 14.7998 2.33519 15.4553 2.1289 16.2242C1.92261 16.9931 2.03022 17.8124 2.42804 18.502C2.82587 19.1916 3.48132 19.6948 4.25022 19.9011C5.01912 20.1074 5.83848 19.9998 6.52804 19.602L6.97304 19.345C7.81381 20.0632 8.78002 20.6199 9.82304 20.987V21.5C9.82304 22.2956 10.1391 23.0587 10.7017 23.6213C11.2643 24.1839 12.0274 24.5 12.823 24.5C13.6187 24.5 14.3818 24.1839 14.9444 23.6213C15.507 23.0587 15.823 22.2956 15.823 21.5V20.987C16.8657 20.6184 17.8312 20.0604 18.671 19.341L19.118 19.599C19.8076 19.9968 20.627 20.1044 21.3959 19.8981C22.1648 19.6918 22.8202 19.1886 23.218 18.499C23.6159 17.8094 23.7235 16.9901 23.5172 16.2212C23.3109 15.4523 22.8076 14.7968 22.118 14.399L22.117 14.4ZM19.569 10.624C19.9077 11.8511 19.9077 13.1469 19.569 14.374C19.5099 14.5876 19.5234 14.8147 19.6074 15.0198C19.6914 15.2249 19.8411 15.3963 20.033 15.507L21.117 16.133C21.3469 16.2656 21.5146 16.4841 21.5833 16.7403C21.652 16.9966 21.6161 17.2697 21.4835 17.4995C21.3509 17.7293 21.1325 17.897 20.8762 17.9658C20.6199 18.0345 20.3469 17.9986 20.117 17.866L19.031 17.238C18.8389 17.1267 18.6153 17.0826 18.3953 17.1124C18.1753 17.1423 17.9715 17.2445 17.816 17.403C16.926 18.3117 15.8046 18.96 14.573 19.278C14.3581 19.3333 14.1676 19.4585 14.0316 19.6339C13.8957 19.8094 13.8219 20.025 13.822 20.247V21.5C13.822 21.7652 13.7167 22.0196 13.5291 22.2071C13.3416 22.3946 13.0873 22.5 12.822 22.5C12.5568 22.5 12.3025 22.3946 12.1149 22.2071C11.9274 22.0196 11.822 21.7652 11.822 21.5V20.248C11.8222 20.026 11.7484 19.8104 11.6124 19.6349C11.4765 19.4595 11.286 19.3343 11.071 19.279C9.83939 18.9597 8.71837 18.31 7.82904 17.4C7.67357 17.2415 7.46978 17.1393 7.2498 17.1094C7.02982 17.0796 6.80615 17.1237 6.61404 17.235L5.53004 17.862C5.41627 17.9287 5.29043 17.9722 5.15977 17.9901C5.0291 18.008 4.89619 17.9998 4.76869 17.9661C4.6412 17.9324 4.52162 17.8738 4.41686 17.7937C4.3121 17.7136 4.22422 17.6135 4.15828 17.4993C4.09234 17.3851 4.04964 17.259 4.03264 17.1282C4.01564 16.9974 4.02468 16.8646 4.05923 16.7373C4.09378 16.61 4.15317 16.4909 4.23397 16.3866C4.31478 16.2824 4.4154 16.1952 4.53004 16.13L5.61404 15.504C5.80599 15.3933 5.95572 15.2219 6.0397 15.0168C6.12369 14.8117 6.13717 14.5846 6.07804 14.371C5.7394 13.1439 5.7394 11.8481 6.07804 10.621C6.13611 10.4079 6.12198 10.1815 6.03786 9.97729C5.95373 9.77305 5.80436 9.60241 5.61304 9.492L4.52904 8.866C4.29923 8.73339 4.13151 8.51492 4.06278 8.25865C3.99405 8.00239 4.02993 7.72931 4.16254 7.4995C4.29515 7.26969 4.51362 7.10197 4.76989 7.03324C5.02615 6.96451 5.29923 7.00039 5.52904 7.133L6.61504 7.761C6.80662 7.87251 7.02982 7.91721 7.24957 7.88807C7.46932 7.85893 7.67315 7.75759 7.82904 7.6C8.71913 6.69134 9.84047 6.04302 11.072 5.725C11.2877 5.66956 11.4786 5.54375 11.6147 5.3675C11.7507 5.19125 11.824 4.97464 11.823 4.752V3.5C11.823 3.23478 11.9284 2.98043 12.1159 2.79289C12.3035 2.60536 12.5578 2.5 12.823 2.5C13.0883 2.5 13.3426 2.60536 13.5301 2.79289C13.7177 2.98043 13.823 3.23478 13.823 3.5V4.752C13.8229 4.97396 13.8967 5.18964 14.0326 5.36508C14.1686 5.54052 14.3591 5.66573 14.574 5.721C15.8061 6.04015 16.9274 6.68988 17.817 7.6C17.9725 7.75847 18.1763 7.86069 18.3963 7.89057C18.6163 7.92044 18.8399 7.87626 19.032 7.765L20.116 7.138C20.2298 7.0713 20.3557 7.02777 20.4863 7.0099C20.617 6.99204 20.7499 7.00019 20.8774 7.0339C21.0049 7.06761 21.1245 7.1262 21.2292 7.20631C21.334 7.28642 21.4219 7.38646 21.4878 7.50067C21.5537 7.61488 21.5964 7.74101 21.6134 7.87179C21.6304 8.00257 21.6214 8.13542 21.5869 8.26269C21.5523 8.38997 21.4929 8.50915 21.4121 8.61337C21.3313 8.7176 21.2307 8.80482 21.116 8.87L20.032 9.496C19.8411 9.60671 19.6921 9.77748 19.6084 9.98169C19.5246 10.1859 19.5108 10.4121 19.569 10.625V10.624Z" fill="#30688E"/>
</g>
<defs>
<clipPath id="clip0_1850_14199">
<rect width="24" height="24" fill="white" transform="translate(0.823242 0.5)"/>
</clipPath>
</defs>
</svg>
