<svg width="30" height="22" viewBox="0 0 30 22" fill="none" xmlns="http://www.w3.org/2000/svg">
<mask id="path-1-inside-1_323_27791" fill="white">
<path fill-rule="evenodd" clip-rule="evenodd" d="M8.78246 17.3087H4.09164C2.28655 17.3087 0.823242 15.8454 0.823242 14.0403V7.95935C0.823242 6.15426 2.28655 4.69095 4.09164 4.69095H8.78268L13.2824 1.41358C15.3625 -0.101426 18.2827 1.38435 18.2827 3.95765V18.0422C18.2827 20.6155 15.3625 22.1012 13.2824 20.5862L8.78246 17.3087Z"/>
</mask>
<path fill-rule="evenodd" clip-rule="evenodd" d="M8.78246 17.3087H4.09164C2.28655 17.3087 0.823242 15.8454 0.823242 14.0403V7.95935C0.823242 6.15426 2.28655 4.69095 4.09164 4.69095H8.78268L13.2824 1.41358C15.3625 -0.101426 18.2827 1.38435 18.2827 3.95765V18.0422C18.2827 20.6155 15.3625 22.1012 13.2824 20.5862L8.78246 17.3087Z" fill="#1CB0F6"/>
<path d="M8.78246 17.3087L10.0241 15.6039C9.66343 15.3412 9.22869 15.1997 8.78246 15.1997V17.3087ZM8.78268 4.69095V6.79995C9.22891 6.79995 9.66364 6.65842 10.0243 6.3957L8.78268 4.69095ZM13.2824 1.41358L12.0407 -0.291176V-0.291176L13.2824 1.41358ZM13.2824 20.5862L14.5241 18.8815L13.2824 20.5862ZM8.78246 15.1997H4.09164V19.4177H8.78246V15.1997ZM4.09164 15.1997C3.45133 15.1997 2.93225 14.6806 2.93225 14.0403H-1.28577C-1.28577 17.0102 1.12178 19.4177 4.09164 19.4177V15.1997ZM2.93225 14.0403V7.95935H-1.28577V14.0403H2.93225ZM2.93225 7.95935C2.93225 7.31903 3.45133 6.79995 4.09164 6.79995V2.58194C1.12178 2.58194 -1.28577 4.98949 -1.28577 7.95935H2.93225ZM4.09164 6.79995H8.78268V2.58194H4.09164V6.79995ZM10.0243 6.3957L14.5241 3.11834L12.0407 -0.291176L7.54102 2.98619L10.0243 6.3957ZM14.5241 3.11834C15.2103 2.61853 16.1737 3.10869 16.1737 3.95765H20.3917C20.3917 -0.339989 15.5146 -2.82138 12.0407 -0.291176L14.5241 3.11834ZM16.1737 3.95765V18.0422H20.3917V3.95765H16.1737ZM16.1737 18.0422C16.1737 18.8911 15.2103 19.3813 14.5241 18.8815L12.0407 22.291C15.5146 24.8212 20.3917 22.3398 20.3917 18.0422H16.1737ZM14.5241 18.8815L10.0241 15.6039L7.54081 19.0135L12.0407 22.291L14.5241 18.8815Z" fill="#30688E" mask="url(#path-1-inside-1_323_27791)"/>
<path d="M22.4925 17.6129C22.6323 18.1346 23.1719 18.4499 23.6721 18.2462C24.8894 17.7503 25.9674 16.9535 26.8012 15.9239C27.8411 14.6398 28.4477 13.0594 28.5342 11.4093C28.6207 9.75924 28.1826 8.12414 27.2826 6.73836C26.561 5.6272 25.5722 4.72208 24.4134 4.10172C23.9372 3.84678 23.3676 4.10393 23.174 4.60822C22.9805 5.1125 23.2381 5.67155 23.7033 5.94611C24.4807 6.40493 25.1457 7.03932 25.6421 7.80373C26.317 8.84306 26.6456 10.0694 26.5808 11.307C26.5159 12.5445 26.0609 13.7298 25.2811 14.6929C24.7075 15.4012 23.9798 15.9626 23.1587 16.3376C22.6674 16.5621 22.3527 17.0911 22.4925 17.6129Z" fill="#30688E"/>
<path d="M20.169 14.9659C20.2726 15.3523 20.6729 15.5865 21.0395 15.4264C21.7452 15.1182 22.3704 14.644 22.8594 14.0401C23.5012 13.2476 23.8756 12.2723 23.9289 11.254C23.9823 10.2356 23.7119 9.22651 23.1565 8.37128C22.7333 7.71956 22.1611 7.18269 21.4915 6.80237C21.1436 6.60481 20.721 6.7959 20.5776 7.16936C20.4343 7.54282 20.627 7.95585 20.9614 8.17535C21.3507 8.43082 21.6852 8.76543 21.9416 9.16027C22.3304 9.75893 22.5196 10.4653 22.4823 11.1782C22.4449 11.891 22.1828 12.5737 21.7336 13.1285C21.4373 13.4943 21.0697 13.7921 20.6559 14.0055C20.3003 14.1889 20.0655 14.5795 20.169 14.9659Z" fill="#30688E"/>
</svg>
