<svg width="51" height="51" viewBox="0 0 51 51" fill="none" xmlns="http://www.w3.org/2000/svg">
<path d="M25.8232 0.621094C39.6309 0.621094 50.8232 11.8135 50.8232 25.6211C50.8232 39.4287 39.6309 50.6211 25.8232 50.6211C12.0156 50.6211 0.823242 39.4287 0.823242 25.6211C0.823242 11.8135 12.0156 0.621094 25.8232 0.621094ZM34.4472 35.8113C34.9069 34.4004 37.0613 20.3396 37.3276 17.5689C37.408 16.7298 37.1428 16.1722 36.6232 15.9233C35.995 15.6211 35.0645 15.7722 33.9852 16.1613C32.5048 16.695 13.5787 24.7309 12.4852 25.1961C11.4482 25.6363 10.4678 26.1167 10.4678 26.8124C10.4678 27.3015 10.758 27.5765 11.558 27.8624C12.3906 28.1591 14.4874 28.795 15.7254 29.1363C16.9178 29.4657 18.2754 29.1798 19.0363 28.707C19.8428 28.2059 29.1504 21.9776 29.8189 21.432C30.4863 20.8863 31.0189 21.5852 30.4732 22.132C29.9276 22.6776 23.5385 28.8787 22.6961 29.7374C21.6732 30.7798 22.3993 31.8602 23.0852 32.2928C23.8689 32.7863 29.5048 36.5667 30.3537 37.1733C31.2026 37.7798 32.0635 38.0548 32.8515 38.0548C33.6395 38.0548 34.0548 37.0167 34.4472 35.8113Z" fill="#1CB0F6"/>
</svg>
