<svg width="23" height="22" viewBox="0 0 23 22" fill="none" xmlns="http://www.w3.org/2000/svg">
<mask id="path-1-inside-1_417_58502" fill="white">
<path fill-rule="evenodd" clip-rule="evenodd" d="M8.78246 17.3087H4.09164C2.28655 17.3087 0.823242 15.8454 0.823242 14.0403V7.95935C0.823242 6.15426 2.28655 4.69095 4.09164 4.69095H8.78268L13.2824 1.41358C15.3625 -0.101426 18.2827 1.38435 18.2827 3.95765V18.0422C18.2827 20.6155 15.3625 22.1012 13.2824 20.5862L8.78246 17.3087Z"/>
</mask>
<path fill-rule="evenodd" clip-rule="evenodd" d="M8.78246 17.3087H4.09164C2.28655 17.3087 0.823242 15.8454 0.823242 14.0403V7.95935C0.823242 6.15426 2.28655 4.69095 4.09164 4.69095H8.78268L13.2824 1.41358C15.3625 -0.101426 18.2827 1.38435 18.2827 3.95765V18.0422C18.2827 20.6155 15.3625 22.1012 13.2824 20.5862L8.78246 17.3087Z" fill="#1CB0F6"/>
<path d="M8.78246 17.3087L10.0241 15.6039C9.66343 15.3412 9.22869 15.1997 8.78246 15.1997V17.3087ZM8.78268 4.69095V6.79995C9.22891 6.79995 9.66364 6.65842 10.0243 6.3957L8.78268 4.69095ZM13.2824 1.41358L12.0407 -0.291176V-0.291176L13.2824 1.41358ZM13.2824 20.5862L14.5241 18.8815L13.2824 20.5862ZM8.78246 15.1997H4.09164V19.4177H8.78246V15.1997ZM4.09164 15.1997C3.45133 15.1997 2.93225 14.6806 2.93225 14.0403H-1.28577C-1.28577 17.0102 1.12178 19.4177 4.09164 19.4177V15.1997ZM2.93225 14.0403V7.95935H-1.28577V14.0403H2.93225ZM2.93225 7.95935C2.93225 7.31903 3.45133 6.79995 4.09164 6.79995V2.58194C1.12178 2.58194 -1.28577 4.98949 -1.28577 7.95935H2.93225ZM4.09164 6.79995H8.78268V2.58194H4.09164V6.79995ZM10.0243 6.3957L14.5241 3.11834L12.0407 -0.291176L7.54102 2.98619L10.0243 6.3957ZM14.5241 3.11834C15.2103 2.61853 16.1737 3.10869 16.1737 3.95765H20.3917C20.3917 -0.339989 15.5146 -2.82138 12.0407 -0.291176L14.5241 3.11834ZM16.1737 3.95765V18.0422H20.3917V3.95765H16.1737ZM16.1737 18.0422C16.1737 18.8911 15.2103 19.3813 14.5241 18.8815L12.0407 22.291C15.5146 24.8212 20.3917 22.3398 20.3917 18.0422H16.1737ZM14.5241 18.8815L10.0241 15.6039L7.54081 19.0135L12.0407 22.291L14.5241 18.8815Z" fill="#30688E" mask="url(#path-1-inside-1_417_58502)"/>
<path d="M19.2631 16.7357C19.389 17.2051 19.9135 17.4617 20.3295 17.2103C20.9528 16.8337 21.0241 16.5743 21.555 16.0749C21.6639 15.9724 21.7707 15.8649 21.8512 15.7388C22.3899 14.896 22.2954 13.9898 22.1016 13.102C21.8164 11.7951 21.8988 10.4756 22.1521 9.16208C22.2872 8.46175 22.3471 7.79505 22.177 7.14257C22.1175 6.91457 21.9949 6.70869 21.8553 6.51883C21.302 5.76592 21.1518 5.53155 20.5449 5.19614C20.0981 4.94919 19.5421 5.18288 19.3591 5.65949C19.1675 6.15853 19.4979 6.65595 19.9359 6.96243C20.1651 7.12279 20.3394 7.34619 20.5088 7.69042C20.5458 7.76559 20.5874 7.83913 20.6273 7.91279C21.1714 8.91676 20.2641 9.93377 20.2015 11.1284C20.1366 12.3659 21.2695 13.7236 20.4896 14.6867C20.2213 15.0181 20.0472 15.2454 19.9117 15.4014C19.5714 15.7931 19.1286 16.2345 19.2631 16.7357Z" fill="#30688E"/>
</svg>
